<svg xmlns="http://www.w3.org/2000/svg" xmlns:xlink="http://www.w3.org/1999/xlink" width="300" zoomAndPan="magnify" viewBox="0 0 224.87999 225" height="300" preserveAspectRatio="xMidYMid meet" version="1.0"><defs><clipPath id="cfc4603117"><path d="M 78 13.753906 L 146 13.753906 L 146 102 L 78 102 Z M 78 13.753906 " clip-rule="nonzero"/></clipPath><clipPath id="7e53026156"><path d="M 4 96 L 119 96 L 119 210.898438 L 4 210.898438 Z M 4 96 " clip-rule="nonzero"/></clipPath><clipPath id="7676c9b057"><path d="M 106 96 L 220.984375 96 L 220.984375 210.898438 L 106 210.898438 Z M 106 96 " clip-rule="nonzero"/></clipPath></defs><g clip-path="url(#cfc4603117)"><path fill="#d8efd3" d="M 135.207031 26.089844 C 141.527344 34.140625 145.421875 45.398438 145.421875 57.863281 C 145.421875 70.332031 141.527344 81.585938 135.207031 89.636719 C 130.746094 95.351562 125.074219 99.421875 118.753906 101.152344 C 129.792969 83.535156 124.597656 68.988281 119.492188 54.574219 C 115.03125 42.0625 110.660156 29.683594 121.179688 15.355469 C 126.503906 17.390625 131.308594 21.15625 135.207031 26.089844 Z M 109.578125 13.753906 C 99.664062 30.289062 104.601562 44.140625 109.535156 58.082031 C 114.296875 71.457031 119.101562 84.964844 105.59375 101.328125 C 99.058594 99.679688 93.214844 95.527344 88.625 89.636719 C 82.304688 81.585938 78.410156 70.332031 78.410156 57.863281 C 78.410156 45.398438 82.304688 34.140625 88.625 26.089844 C 94.167969 19.078125 101.484375 14.488281 109.578125 13.753906 Z M 109.578125 13.753906 " fill-opacity="1" fill-rule="nonzero"/></g><g clip-path="url(#7e53026156)"><path fill="#d8efd3" d="M 4.644531 144.570312 C 6.421875 159.378906 13.953125 174.960938 26.808594 187.773438 C 39.667969 200.632812 55.207031 208.164062 70.011719 209.980469 C 80.488281 211.238281 90.53125 209.636719 98.800781 204.917969 C 69.363281 198.164062 59.667969 177.863281 50.097656 157.730469 C 41.789062 140.285156 33.5625 123.015625 7.980469 119.117188 C 4.601562 126.695312 3.519531 135.480469 4.644531 144.570312 Z M 77.023438 118.164062 C 92.78125 133.792969 103.429688 153.835938 107.542969 175.609375 C 107.976562 152.492188 96.460938 130.761719 77.023438 118.164062 Z M 12.394531 140.328125 C 19.191406 156.996094 28.453125 172.535156 39.925781 186.433594 C 23.78125 176.433594 13.5625 159.246094 12.394531 140.328125 Z M 18.238281 105.527344 C 45.425781 112.320312 54.601562 131.628906 63.863281 151.109375 C 72.738281 169.765625 81.699219 188.597656 112.390625 191.539062 C 117.414062 183.144531 119.144531 172.796875 117.847656 162.0625 C 116.027344 147.257812 108.496094 131.671875 95.683594 118.859375 C 82.824219 106 67.285156 98.46875 52.480469 96.695312 C 39.625 95.136719 27.328125 97.992188 18.238281 105.527344 Z M 18.238281 105.527344 " fill-opacity="1" fill-rule="nonzero"/></g><g clip-path="url(#7676c9b057)"><path fill="#d8efd3" d="M 220.226562 144.570312 C 218.40625 159.378906 210.875 174.960938 198.0625 187.773438 C 185.203125 200.632812 169.664062 208.164062 154.859375 209.9375 C 144.382812 211.238281 134.339844 209.59375 126.070312 204.875 C 155.507812 198.121094 165.203125 177.816406 174.773438 157.6875 C 183.082031 140.242188 191.308594 122.972656 216.890625 119.074219 C 220.269531 126.695312 221.351562 135.480469 220.226562 144.570312 Z M 147.847656 118.164062 C 132.089844 133.792969 121.4375 153.792969 117.328125 175.609375 C 116.851562 152.492188 128.410156 130.761719 147.847656 118.164062 Z M 212.476562 140.328125 C 205.679688 156.996094 196.414062 172.535156 184.945312 186.433594 C 201.046875 176.433594 211.308594 159.246094 212.476562 140.328125 Z M 206.632812 105.527344 C 179.445312 112.320312 170.269531 131.628906 161.003906 151.109375 C 152.132812 169.765625 143.171875 188.597656 112.480469 191.539062 C 107.5 183.144531 105.726562 172.796875 107.023438 162.0625 C 108.800781 147.257812 116.375 131.671875 129.1875 118.859375 C 142.046875 106 157.585938 98.46875 172.390625 96.695312 C 185.246094 95.136719 197.5 97.992188 206.632812 105.527344 Z M 206.632812 105.527344 " fill-opacity="1" fill-rule="nonzero"/></g><path fill="#3b3030" d="M 106.765625 164.050781 C 103.863281 145.394531 93.171875 128.597656 77.023438 118.164062 C 91.742188 132.710938 101.960938 151.109375 106.632812 171.195312 C 106.503906 168.855469 106.546875 166.476562 106.765625 164.050781 Z M 106.765625 164.050781 " fill-opacity="1" fill-rule="nonzero"/><path fill="#3b3030" d="M 147.847656 118.164062 C 131.699219 128.597656 121.007812 145.394531 118.105469 164.050781 C 118.324219 166.476562 118.367188 168.8125 118.28125 171.152344 C 122.910156 151.109375 133.171875 132.710938 147.847656 118.164062 Z M 147.847656 118.164062 " fill-opacity="1" fill-rule="nonzero"/><path fill="#3b3030" d="M 212.476562 140.328125 C 205.679688 156.996094 196.414062 172.535156 184.945312 186.433594 C 201.046875 176.433594 211.308594 159.246094 212.476562 140.328125 Z M 212.476562 140.328125 " fill-opacity="1" fill-rule="nonzero"/><path fill="#3b3030" d="M 39.925781 186.433594 C 28.453125 172.535156 19.191406 156.996094 12.394531 140.328125 C 13.5625 159.246094 23.78125 176.433594 39.925781 186.433594 Z M 39.925781 186.433594 " fill-opacity="1" fill-rule="nonzero"/></svg>