<svg xmlns="http://www.w3.org/2000/svg" xmlns:xlink="http://www.w3.org/1999/xlink" width="330" zoomAndPan="magnify" viewBox="0 0 247.5 225" height="300" preserveAspectRatio="xMidYMid meet" version="1.0"><defs><clipPath id="8a65a3c320"><path d="M 84 0.226562 L 161 0.226562 L 161 100 L 84 100 Z M 84 0.226562 " clip-rule="nonzero"/></clipPath><clipPath id="5e998a4b9a"><path d="M 116 93 L 246.902344 93 L 246.902344 224 L 116 224 Z M 116 93 " clip-rule="nonzero"/></clipPath></defs><g clip-path="url(#8a65a3c320)"><path fill="#d8efd3" d="M 149.335938 14.226562 C 156.507812 23.363281 160.925781 36.132812 160.925781 50.28125 C 160.925781 64.429688 156.507812 77.199219 149.335938 86.335938 C 144.273438 92.820312 137.839844 97.4375 130.667969 99.402344 C 143.195312 79.410156 137.300781 62.90625 131.503906 46.546875 C 126.445312 32.351562 121.484375 18.304688 133.417969 2.042969 C 139.460938 4.351562 144.914062 8.625 149.335938 14.226562 Z M 120.253906 0.226562 C 109.007812 18.992188 114.605469 34.710938 120.207031 50.527344 C 125.609375 65.707031 131.0625 81.03125 115.734375 99.597656 C 108.320312 97.730469 101.6875 93.015625 96.480469 86.335938 C 89.308594 77.199219 84.886719 64.429688 84.886719 50.28125 C 84.886719 36.132812 89.308594 23.363281 96.480469 14.226562 C 102.769531 6.269531 111.070312 1.0625 120.253906 0.226562 Z M 120.253906 0.226562 " fill-opacity="1" fill-rule="nonzero"/></g><path fill="#d8efd3" d="M 1.1875 148.671875 C 3.199219 165.46875 11.746094 183.152344 26.335938 197.695312 C 40.925781 212.28125 58.558594 220.828125 75.359375 222.890625 C 87.246094 224.316406 98.640625 222.5 108.023438 217.144531 C 74.621094 209.484375 63.617188 186.445312 52.761719 163.601562 C 43.332031 143.808594 34 124.207031 4.96875 119.789062 C 1.136719 128.382812 -0.0898438 138.355469 1.1875 148.671875 Z M 83.316406 118.707031 C 101.195312 136.441406 113.28125 159.183594 117.945312 183.890625 C 118.4375 157.660156 105.371094 133 83.316406 118.707031 Z M 9.976562 143.855469 C 17.691406 162.769531 28.203125 180.402344 41.21875 196.171875 C 22.898438 184.824219 11.304688 165.324219 9.976562 143.855469 Z M 16.609375 104.363281 C 47.457031 112.074219 57.871094 133.984375 68.382812 156.089844 C 78.453125 177.257812 88.621094 198.625 123.449219 201.96875 C 129.144531 192.4375 131.109375 180.699219 129.636719 168.515625 C 127.574219 151.714844 119.027344 134.03125 104.488281 119.492188 C 89.898438 104.902344 72.265625 96.355469 55.464844 94.34375 C 40.875 92.574219 26.925781 95.816406 16.609375 104.363281 Z M 16.609375 104.363281 " fill-opacity="1" fill-rule="nonzero"/><g clip-path="url(#5e998a4b9a)"><path fill="#d8efd3" d="M 245.808594 148.671875 C 243.746094 165.46875 235.199219 183.152344 220.660156 197.695312 C 206.070312 212.28125 188.433594 220.828125 171.636719 222.84375 C 159.75 224.316406 148.351562 222.449219 138.96875 217.097656 C 172.371094 209.433594 183.375 186.394531 194.230469 163.554688 C 203.664062 143.757812 212.996094 124.160156 242.027344 119.738281 C 245.859375 128.382812 247.085938 138.355469 245.808594 148.671875 Z M 163.679688 118.707031 C 145.796875 136.441406 133.714844 159.132812 129.046875 183.890625 C 128.507812 157.660156 141.621094 133 163.679688 118.707031 Z M 237.015625 143.855469 C 229.304688 162.769531 218.792969 180.402344 205.773438 196.171875 C 224.046875 184.824219 235.691406 165.324219 237.015625 143.855469 Z M 230.382812 104.363281 C 199.535156 112.074219 189.121094 133.984375 178.609375 156.089844 C 168.542969 177.257812 158.371094 198.625 123.546875 201.96875 C 117.898438 192.4375 115.882812 180.699219 117.355469 168.515625 C 119.371094 151.714844 127.96875 134.03125 142.507812 119.492188 C 157.097656 104.902344 174.730469 96.355469 191.53125 94.34375 C 206.117188 92.574219 220.019531 95.816406 230.382812 104.363281 Z M 230.382812 104.363281 " fill-opacity="1" fill-rule="nonzero"/></g><path fill="#86ab89" d="M 117.0625 170.773438 C 113.769531 149.605469 101.636719 130.546875 83.316406 118.707031 C 100.015625 135.210938 111.609375 156.089844 116.914062 178.878906 C 116.765625 176.226562 116.816406 173.527344 117.0625 170.773438 Z M 117.0625 170.773438 " fill-opacity="1" fill-rule="nonzero"/><path fill="#86ab89" d="M 163.679688 118.707031 C 145.355469 130.546875 133.222656 149.605469 129.933594 170.773438 C 130.175781 173.527344 130.226562 176.179688 130.128906 178.832031 C 135.382812 156.089844 147.027344 135.210938 163.679688 118.707031 Z M 163.679688 118.707031 " fill-opacity="1" fill-rule="nonzero"/><path fill="#86ab89" d="M 237.015625 143.855469 C 229.304688 162.769531 218.792969 180.402344 205.773438 196.171875 C 224.046875 184.824219 235.691406 165.324219 237.015625 143.855469 Z M 237.015625 143.855469 " fill-opacity="1" fill-rule="nonzero"/><path fill="#86ab89" d="M 41.21875 196.171875 C 28.203125 180.402344 17.691406 162.769531 9.976562 143.855469 C 11.304688 165.324219 22.898438 184.824219 41.21875 196.171875 Z M 41.21875 196.171875 " fill-opacity="1" fill-rule="nonzero"/></svg>