<svg xmlns="http://www.w3.org/2000/svg" xmlns:xlink="http://www.w3.org/1999/xlink" width="300" zoomAndPan="magnify" viewBox="0 0 224.87999 225" height="300" preserveAspectRatio="xMidYMid meet" version="1.0"><defs><clipPath id="a82e1b16a4"><path d="M 6.601562 10.101562 L 217.988281 10.101562 L 217.988281 214.742188 L 6.601562 214.742188 Z M 6.601562 10.101562 " clip-rule="nonzero"/></clipPath></defs><path fill="#d8efd3" d="M 84.847656 139.761719 C 75.425781 124.109375 66.398438 109.121094 49.679688 99.109375 C 44.167969 95.8125 45.9375 87.386719 52.3125 86.617188 C 71.160156 84.351562 95.503906 94.207031 115.253906 113.953125 C 139.511719 138.210938 148.839844 169.402344 139.117188 188.824219 C 137.292969 192.460938 132.636719 193.621094 129.289062 191.304688 C 106.359375 175.488281 94.992188 156.609375 84.847656 139.761719 " fill-opacity="1" fill-rule="nonzero"/><path fill="#272020" d="M 186.367188 101.703125 C 184.699219 98.871094 181.226562 97.636719 178.152344 98.8125 C 158.726562 106.222656 148.6875 119.34375 139.09375 134.765625 C 142.035156 140.152344 144.402344 145.679688 146.148438 151.257812 C 150.878906 166.367188 150.449219 180.746094 144.945312 191.738281 C 144.4375 192.753906 143.8125 193.679688 143.09375 194.507812 C 150.15625 190.25 157.082031 184.863281 163.519531 178.429688 C 188.566406 153.378906 197.691406 120.941406 186.367188 101.703125 " fill-opacity="1" fill-rule="nonzero"/><path fill="#d8efd3" d="M 164.617188 99.109375 C 170.128906 95.8125 168.359375 87.386719 161.980469 86.617188 C 147.222656 84.84375 129.09375 90.503906 112.4375 102.527344 C 114.980469 104.667969 117.460938 106.941406 119.863281 109.34375 C 126.09375 115.574219 131.472656 122.289062 135.878906 129.292969 C 143.351562 117.582031 151.679688 106.855469 164.617188 99.109375 " fill-opacity="1" fill-rule="nonzero"/><path fill="#272020" d="M 27.929688 101.703125 C 29.597656 98.871094 33.070312 97.636719 36.144531 98.8125 C 58.8125 107.460938 68.703125 123.886719 80.015625 142.671875 C 89.796875 158.921875 100.6875 177.007812 121.636719 192.757812 C 126.140625 196.144531 124.773438 203.210938 119.332031 204.683594 C 99.914062 209.949219 72.554688 200.203125 50.78125 178.429688 C 25.734375 153.378906 16.605469 120.941406 27.929688 101.703125 " fill-opacity="1" fill-rule="nonzero"/><g clip-path="url(#a82e1b16a4)"><path fill="#272020" d="M 188.960938 42.859375 C 169.695312 22.691406 142.53125 10.128906 112.4375 10.128906 C 97.949219 10.128906 84.144531 13.042969 71.574219 18.3125 C 44.492188 29.65625 23.132812 51.933594 13.007812 79.625 C 8.867188 90.953125 6.609375 103.191406 6.609375 115.957031 C 6.609375 126.878906 8.265625 137.414062 11.335938 147.324219 C 10.089844 141.117188 9.433594 134.695312 9.433594 128.121094 C 9.433594 112.933594 12.921875 98.558594 19.144531 85.757812 C 30.359375 62.667969 50.460938 44.695312 75 36.28125 C 84.878906 32.886719 95.480469 31.042969 106.511719 31.042969 C 132.453125 31.042969 156.019531 41.222656 173.433594 57.800781 C 192.011719 75.484375 203.585938 100.453125 203.585938 128.121094 C 203.585938 131.691406 203.394531 135.214844 203.019531 138.6875 C 199.40625 172.085938 178.851562 200.398438 150.125 214.867188 C 182.082031 202.6875 206.613281 175.464844 215.066406 141.851562 C 217.152344 133.5625 218.265625 124.890625 218.265625 115.957031 C 218.265625 87.605469 207.113281 61.859375 188.960938 42.859375 " fill-opacity="1" fill-rule="nonzero"/></g></svg>