<svg xmlns="http://www.w3.org/2000/svg" xmlns:xlink="http://www.w3.org/1999/xlink" width="500" zoomAndPan="magnify" viewBox="0 0 375 374.999991" height="500" preserveAspectRatio="xMidYMid meet" version="1.0"><defs><g/><clipPath id="fc7967de8f"><path d="M 162 68.230469 L 212 68.230469 L 212 132 L 162 132 Z M 162 68.230469 " clip-rule="nonzero"/></clipPath><clipPath id="1475460b64"><path d="M 109.03125 127 L 192 127 L 192 210.730469 L 109.03125 210.730469 Z M 109.03125 127 " clip-rule="nonzero"/></clipPath><clipPath id="669c04dc86"><path d="M 183 127 L 265.71875 127 L 265.71875 210 L 183 210 Z M 183 127 " clip-rule="nonzero"/></clipPath></defs><g fill="#6d4c41" fill-opacity="1"><g transform="translate(70.57443, 276.076926)"><g><path d="M 20.09375 0.84375 C 16.75 0.84375 13.753906 0.0859375 11.109375 -1.421875 C 8.460938 -2.929688 6.390625 -5.023438 4.890625 -7.703125 C 3.390625 -10.378906 2.640625 -13.390625 2.640625 -16.734375 C 2.640625 -20.078125 3.394531 -23.085938 4.90625 -25.765625 C 6.425781 -28.441406 8.515625 -30.535156 11.171875 -32.046875 C 13.835938 -33.566406 16.8125 -34.328125 20.09375 -34.328125 C 22.550781 -34.328125 24.859375 -33.84375 27.015625 -32.875 C 29.179688 -31.914062 30.847656 -30.632812 32.015625 -29.03125 L 29.171875 -26.953125 C 28.671875 -27.703125 27.976562 -28.414062 27.09375 -29.09375 C 26.207031 -29.78125 25.164062 -30.328125 23.96875 -30.734375 C 22.769531 -31.140625 21.492188 -31.34375 20.140625 -31.34375 C 17.335938 -31.34375 14.882812 -30.679688 12.78125 -29.359375 C 10.6875 -28.035156 9.070312 -26.253906 7.9375 -24.015625 C 6.800781 -21.773438 6.234375 -19.347656 6.234375 -16.734375 C 6.234375 -14.117188 6.800781 -11.691406 7.9375 -9.453125 C 9.070312 -7.210938 10.695312 -5.429688 12.8125 -4.109375 C 14.925781 -2.785156 17.367188 -2.125 20.140625 -2.125 C 22.160156 -2.125 24.03125 -2.535156 25.75 -3.359375 C 27.46875 -4.179688 28.875 -5.425781 29.96875 -7.09375 L 32.625 -5.390625 C 31.425781 -3.554688 29.742188 -2.054688 27.578125 -0.890625 C 25.421875 0.265625 22.925781 0.84375 20.09375 0.84375 Z M 20.09375 0.84375 "/></g></g></g><g fill="#6d4c41" fill-opacity="1"><g transform="translate(104.613027, 276.076926)"><g><path d="M 12.484375 0.5625 C 9.742188 0.5625 7.65625 -0.253906 6.21875 -1.890625 C 4.78125 -3.523438 4.0625 -5.75 4.0625 -8.5625 L 4.0625 -22.171875 L 7.28125 -22.171875 L 7.28125 -9.875 C 7.28125 -7.382812 7.726562 -5.46875 8.625 -4.125 C 9.519531 -2.789062 11.070312 -2.125 13.28125 -2.125 C 14.476562 -2.125 15.582031 -2.445312 16.59375 -3.09375 C 17.601562 -3.738281 18.421875 -4.707031 19.046875 -6 C 19.679688 -7.289062 20 -8.882812 20 -10.78125 L 20 -22.171875 L 23.21875 -22.171875 L 23.21875 -4.875 C 23.21875 -2.976562 23.28125 -1.351562 23.40625 0 L 20.328125 0 C 20.203125 -1.570312 20.140625 -2.832031 20.140625 -3.78125 L 20.046875 -3.78125 C 19.640625 -2.925781 19.039062 -2.175781 18.25 -1.53125 C 17.457031 -0.882812 16.554688 -0.375 15.546875 0 C 14.546875 0.375 13.523438 0.5625 12.484375 0.5625 Z M 12.484375 0.5625 "/></g></g></g><g fill="#6d4c41" fill-opacity="1"><g transform="translate(132.080286, 276.076926)"><g><path d="M 4.25 11.34375 L 4.25 -22.171875 L 7.46875 -22.171875 L 7.46875 -18.296875 L 7.609375 -18.296875 C 8.492188 -19.679688 9.691406 -20.757812 11.203125 -21.53125 C 12.710938 -22.300781 14.289062 -22.6875 15.9375 -22.6875 C 18.175781 -22.6875 20.164062 -22.175781 21.90625 -21.15625 C 23.65625 -20.132812 25.003906 -18.738281 25.953125 -16.96875 C 26.898438 -15.207031 27.375 -13.238281 27.375 -11.0625 C 27.375 -8.882812 26.898438 -6.910156 25.953125 -5.140625 C 25.003906 -3.378906 23.65625 -1.988281 21.90625 -0.96875 C 20.164062 0.0507812 18.175781 0.5625 15.9375 0.5625 C 14.320312 0.5625 12.757812 0.1875 11.25 -0.5625 C 9.738281 -1.320312 8.523438 -2.378906 7.609375 -3.734375 L 7.46875 -3.734375 L 7.46875 11.34375 Z M 15.609375 -2.171875 C 17.335938 -2.171875 18.832031 -2.5625 20.09375 -3.34375 C 21.351562 -4.132812 22.3125 -5.203125 22.96875 -6.546875 C 23.632812 -7.890625 23.96875 -9.394531 23.96875 -11.0625 C 23.96875 -12.726562 23.632812 -14.238281 22.96875 -15.59375 C 22.3125 -16.957031 21.351562 -18.03125 20.09375 -18.8125 C 18.832031 -19.601562 17.335938 -20 15.609375 -20 C 13.960938 -20 12.492188 -19.601562 11.203125 -18.8125 C 9.910156 -18.03125 8.898438 -16.957031 8.171875 -15.59375 C 7.453125 -14.238281 7.09375 -12.726562 7.09375 -11.0625 C 7.09375 -9.394531 7.453125 -7.878906 8.171875 -6.515625 C 8.898438 -5.160156 9.910156 -4.097656 11.203125 -3.328125 C 12.492188 -2.554688 13.960938 -2.171875 15.609375 -2.171875 Z M 15.609375 -2.171875 "/></g></g></g><g fill="#6d4c41" fill-opacity="1"><g transform="translate(162.100442, 276.076926)"><g><path d="M 4.25 11.34375 L 4.25 -22.171875 L 7.46875 -22.171875 L 7.46875 -18.296875 L 7.609375 -18.296875 C 8.492188 -19.679688 9.691406 -20.757812 11.203125 -21.53125 C 12.710938 -22.300781 14.289062 -22.6875 15.9375 -22.6875 C 18.175781 -22.6875 20.164062 -22.175781 21.90625 -21.15625 C 23.65625 -20.132812 25.003906 -18.738281 25.953125 -16.96875 C 26.898438 -15.207031 27.375 -13.238281 27.375 -11.0625 C 27.375 -8.882812 26.898438 -6.910156 25.953125 -5.140625 C 25.003906 -3.378906 23.65625 -1.988281 21.90625 -0.96875 C 20.164062 0.0507812 18.175781 0.5625 15.9375 0.5625 C 14.320312 0.5625 12.757812 0.1875 11.25 -0.5625 C 9.738281 -1.320312 8.523438 -2.378906 7.609375 -3.734375 L 7.46875 -3.734375 L 7.46875 11.34375 Z M 15.609375 -2.171875 C 17.335938 -2.171875 18.832031 -2.5625 20.09375 -3.34375 C 21.351562 -4.132812 22.3125 -5.203125 22.96875 -6.546875 C 23.632812 -7.890625 23.96875 -9.394531 23.96875 -11.0625 C 23.96875 -12.726562 23.632812 -14.238281 22.96875 -15.59375 C 22.3125 -16.957031 21.351562 -18.03125 20.09375 -18.8125 C 18.832031 -19.601562 17.335938 -20 15.609375 -20 C 13.960938 -20 12.492188 -19.601562 11.203125 -18.8125 C 9.910156 -18.03125 8.898438 -16.957031 8.171875 -15.59375 C 7.453125 -14.238281 7.09375 -12.726562 7.09375 -11.0625 C 7.09375 -9.394531 7.453125 -7.878906 8.171875 -6.515625 C 8.898438 -5.160156 9.910156 -4.097656 11.203125 -3.328125 C 12.492188 -2.554688 13.960938 -2.171875 15.609375 -2.171875 Z M 15.609375 -2.171875 "/></g></g></g><g fill="#6d4c41" fill-opacity="1"><g transform="translate(192.120599, 276.076926)"><g><path d="M 10.265625 0.5625 C 9.035156 0.5625 7.835938 0.335938 6.671875 -0.109375 C 5.503906 -0.566406 4.53125 -1.300781 3.75 -2.3125 C 2.976562 -3.320312 2.59375 -4.597656 2.59375 -6.140625 C 2.59375 -8.253906 3.28125 -9.851562 4.65625 -10.9375 C 6.03125 -12.03125 7.796875 -12.738281 9.953125 -13.0625 C 12.109375 -13.394531 14.796875 -13.5625 18.015625 -13.5625 L 18.203125 -13.5625 L 18.203125 -14.28125 C 18.203125 -16.164062 17.695312 -17.585938 16.6875 -18.546875 C 15.675781 -19.515625 14.210938 -20 12.296875 -20 C 11.035156 -20 9.820312 -19.757812 8.65625 -19.28125 C 7.488281 -18.8125 6.507812 -18.1875 5.71875 -17.40625 L 3.921875 -19.53125 C 4.867188 -20.476562 6.097656 -21.238281 7.609375 -21.8125 C 9.117188 -22.394531 10.789062 -22.6875 12.625 -22.6875 C 14.257812 -22.6875 15.722656 -22.382812 17.015625 -21.78125 C 18.304688 -21.1875 19.332031 -20.28125 20.09375 -19.0625 C 20.851562 -17.851562 21.234375 -16.382812 21.234375 -14.65625 L 21.234375 -4.96875 C 21.234375 -4.082031 21.265625 -3.179688 21.328125 -2.265625 C 21.390625 -1.347656 21.484375 -0.59375 21.609375 0 L 18.71875 0 C 18.5 -1.257812 18.390625 -2.457031 18.390625 -3.59375 L 18.296875 -3.59375 C 17.285156 -2.144531 16.140625 -1.085938 14.859375 -0.421875 C 13.585938 0.234375 12.054688 0.5625 10.265625 0.5625 Z M 11.109375 -2.078125 C 12.554688 -2.078125 13.816406 -2.40625 14.890625 -3.0625 C 15.960938 -3.726562 16.78125 -4.617188 17.34375 -5.734375 C 17.914062 -6.859375 18.203125 -8.082031 18.203125 -9.40625 L 18.203125 -11.0625 L 17.25 -11.0625 C 13.914062 -11.0625 11.191406 -10.738281 9.078125 -10.09375 C 6.960938 -9.445312 5.90625 -8.175781 5.90625 -6.28125 C 5.90625 -4.832031 6.410156 -3.769531 7.421875 -3.09375 C 8.429688 -2.414062 9.660156 -2.078125 11.109375 -2.078125 Z M 11.109375 -2.078125 "/></g></g></g><g fill="#6d4c41" fill-opacity="1"><g transform="translate(217.365889, 276.076926)"><g/></g></g><g fill="#6d4c41" fill-opacity="1"><g transform="translate(229.184849, 276.076926)"><g><path d="M 10.171875 0.84375 C 8.585938 0.84375 7.164062 0.554688 5.90625 -0.015625 C 4.644531 -0.597656 3.613281 -1.398438 2.8125 -2.421875 C 2.007812 -3.453125 1.46875 -4.628906 1.1875 -5.953125 L 4.34375 -6.8125 C 4.632812 -5.457031 5.257812 -4.335938 6.21875 -3.453125 C 7.175781 -2.566406 8.363281 -2.125 9.78125 -2.125 C 11.925781 -2.125 13.445312 -2.84375 14.34375 -4.28125 C 15.25 -5.71875 15.703125 -7.582031 15.703125 -9.875 L 15.703125 -33.46875 L 19.109375 -33.46875 L 19.109375 -9.640625 C 19.109375 -7.941406 18.847656 -6.300781 18.328125 -4.71875 C 17.804688 -3.144531 16.878906 -1.820312 15.546875 -0.75 C 14.222656 0.3125 12.429688 0.84375 10.171875 0.84375 Z M 10.171875 0.84375 "/></g></g></g><g fill="#6d4c41" fill-opacity="1"><g transform="translate(252.444564, 276.076926)"><g><path d="M 14.421875 0.5625 C 12.179688 0.5625 10.160156 0.0625 8.359375 -0.9375 C 6.566406 -1.945312 5.164062 -3.332031 4.15625 -5.09375 C 3.144531 -6.863281 2.640625 -8.851562 2.640625 -11.0625 C 2.640625 -13.269531 3.144531 -15.253906 4.15625 -17.015625 C 5.164062 -18.785156 6.566406 -20.171875 8.359375 -21.171875 C 10.160156 -22.179688 12.179688 -22.6875 14.421875 -22.6875 C 16.691406 -22.6875 18.722656 -22.179688 20.515625 -21.171875 C 22.316406 -20.171875 23.71875 -18.785156 24.71875 -17.015625 C 25.726562 -15.253906 26.234375 -13.269531 26.234375 -11.0625 C 26.234375 -8.851562 25.726562 -6.863281 24.71875 -5.09375 C 23.71875 -3.332031 22.316406 -1.945312 20.515625 -0.9375 C 18.722656 0.0625 16.691406 0.5625 14.421875 0.5625 Z M 14.421875 -2.171875 C 16.085938 -2.171875 17.554688 -2.5625 18.828125 -3.34375 C 20.109375 -4.132812 21.097656 -5.203125 21.796875 -6.546875 C 22.492188 -7.890625 22.84375 -9.394531 22.84375 -11.0625 C 22.84375 -12.726562 22.492188 -14.238281 21.796875 -15.59375 C 21.097656 -16.957031 20.109375 -18.03125 18.828125 -18.8125 C 17.554688 -19.601562 16.085938 -20 14.421875 -20 C 12.753906 -20 11.285156 -19.601562 10.015625 -18.8125 C 8.753906 -18.03125 7.773438 -16.957031 7.078125 -15.59375 C 6.390625 -14.238281 6.046875 -12.726562 6.046875 -11.0625 C 6.046875 -9.394531 6.390625 -7.890625 7.078125 -6.546875 C 7.773438 -5.203125 8.753906 -4.132812 10.015625 -3.34375 C 11.285156 -2.5625 12.753906 -2.171875 14.421875 -2.171875 Z M 14.421875 -2.171875 "/></g></g></g><g fill="#6d4c41" fill-opacity="1"><g transform="translate(281.330106, 276.076926)"><g><path d="M 4.34375 11.34375 C 3.375 11.34375 2.414062 11.25 1.46875 11.0625 L 1.796875 8.125 C 2.554688 8.382812 3.34375 8.515625 4.15625 8.515625 C 5.195312 8.515625 6.039062 8.191406 6.6875 7.546875 C 7.332031 6.898438 7.910156 5.914062 8.421875 4.59375 L 10.21875 -0.046875 L 0.75 -22.171875 L 4.34375 -22.171875 L 11.875 -3.453125 L 11.96875 -3.453125 L 18.8125 -22.171875 L 22.3125 -22.171875 L 11.296875 5.71875 C 10.578125 7.582031 9.6875 8.984375 8.625 9.921875 C 7.570312 10.867188 6.144531 11.34375 4.34375 11.34375 Z M 4.34375 11.34375 "/></g></g></g><g fill="#6d4c41" fill-opacity="1"><g transform="translate(107.800207, 303.36923)"><g><path d="M 4.5625 0.1875 C 3.800781 0.1875 3.117188 0.015625 2.515625 -0.328125 C 1.921875 -0.671875 1.453125 -1.144531 1.109375 -1.75 C 0.765625 -2.351562 0.59375 -3.035156 0.59375 -3.796875 C 0.59375 -4.554688 0.765625 -5.238281 1.109375 -5.84375 C 1.453125 -6.457031 1.925781 -6.9375 2.53125 -7.28125 C 3.144531 -7.625 3.820312 -7.796875 4.5625 -7.796875 C 5.125 -7.796875 5.648438 -7.6875 6.140625 -7.46875 C 6.628906 -7.25 7.003906 -6.957031 7.265625 -6.59375 L 6.625 -6.125 C 6.507812 -6.289062 6.347656 -6.453125 6.140625 -6.609375 C 5.941406 -6.765625 5.707031 -6.882812 5.4375 -6.96875 C 5.164062 -7.0625 4.878906 -7.109375 4.578125 -7.109375 C 3.941406 -7.109375 3.382812 -6.957031 2.90625 -6.65625 C 2.425781 -6.363281 2.054688 -5.960938 1.796875 -5.453125 C 1.546875 -4.941406 1.421875 -4.390625 1.421875 -3.796875 C 1.421875 -3.203125 1.546875 -2.648438 1.796875 -2.140625 C 2.054688 -1.640625 2.425781 -1.238281 2.90625 -0.9375 C 3.382812 -0.632812 3.941406 -0.484375 4.578125 -0.484375 C 5.035156 -0.484375 5.457031 -0.578125 5.84375 -0.765625 C 6.238281 -0.953125 6.5625 -1.234375 6.8125 -1.609375 L 7.40625 -1.21875 C 7.132812 -0.800781 6.753906 -0.460938 6.265625 -0.203125 C 5.773438 0.0546875 5.207031 0.1875 4.5625 0.1875 Z M 4.5625 0.1875 "/></g></g></g><g fill="#6d4c41" fill-opacity="1"><g transform="translate(124.126035, 303.36923)"><g><path d="M 4.5625 0.1875 C 3.820312 0.1875 3.144531 0.015625 2.53125 -0.328125 C 1.925781 -0.671875 1.453125 -1.144531 1.109375 -1.75 C 0.765625 -2.351562 0.59375 -3.035156 0.59375 -3.796875 C 0.59375 -4.554688 0.765625 -5.238281 1.109375 -5.84375 C 1.453125 -6.457031 1.925781 -6.9375 2.53125 -7.28125 C 3.144531 -7.625 3.820312 -7.796875 4.5625 -7.796875 C 5.300781 -7.796875 5.972656 -7.625 6.578125 -7.28125 C 7.191406 -6.9375 7.664062 -6.457031 8 -5.84375 C 8.34375 -5.238281 8.515625 -4.554688 8.515625 -3.796875 C 8.515625 -3.035156 8.34375 -2.351562 8 -1.75 C 7.664062 -1.144531 7.191406 -0.671875 6.578125 -0.328125 C 5.972656 0.015625 5.300781 0.1875 4.5625 0.1875 Z M 4.5625 -0.5 C 5.1875 -0.5 5.738281 -0.644531 6.21875 -0.9375 C 6.695312 -1.238281 7.0625 -1.640625 7.3125 -2.140625 C 7.570312 -2.648438 7.703125 -3.203125 7.703125 -3.796875 C 7.703125 -4.390625 7.570312 -4.941406 7.3125 -5.453125 C 7.0625 -5.960938 6.695312 -6.363281 6.21875 -6.65625 C 5.738281 -6.957031 5.1875 -7.109375 4.5625 -7.109375 C 3.9375 -7.109375 3.382812 -6.957031 2.90625 -6.65625 C 2.425781 -6.363281 2.054688 -5.960938 1.796875 -5.453125 C 1.546875 -4.941406 1.421875 -4.390625 1.421875 -3.796875 C 1.421875 -3.203125 1.546875 -2.648438 1.796875 -2.140625 C 2.054688 -1.640625 2.425781 -1.238281 2.90625 -0.9375 C 3.382812 -0.644531 3.9375 -0.5 4.5625 -0.5 Z M 4.5625 -0.5 "/></g></g></g><g fill="#6d4c41" fill-opacity="1"><g transform="translate(141.848157, 303.36923)"><g><path d="M 1.78125 0 L 1.015625 0 L 1.015625 -7.59375 L 5.59375 -7.59375 L 5.59375 -6.90625 L 1.78125 -6.90625 L 1.78125 -4.265625 L 5.328125 -4.265625 L 5.328125 -3.59375 L 1.78125 -3.59375 Z M 1.78125 0 "/></g></g></g><g fill="#6d4c41" fill-opacity="1"><g transform="translate(156.476955, 303.36923)"><g><path d="M 1.78125 0 L 1.015625 0 L 1.015625 -7.59375 L 5.59375 -7.59375 L 5.59375 -6.90625 L 1.78125 -6.90625 L 1.78125 -4.265625 L 5.328125 -4.265625 L 5.328125 -3.59375 L 1.78125 -3.59375 Z M 1.78125 0 "/></g></g></g><g fill="#6d4c41" fill-opacity="1"><g transform="translate(171.10575, 303.36923)"><g><path d="M 5.84375 0 L 1.015625 0 L 1.015625 -7.59375 L 5.71875 -7.59375 L 5.71875 -6.90625 L 1.78125 -6.90625 L 1.78125 -4.296875 L 5.46875 -4.296875 L 5.46875 -3.625 L 1.78125 -3.625 L 1.78125 -0.6875 L 5.84375 -0.6875 Z M 5.84375 0 "/></g></g></g><g fill="#6d4c41" fill-opacity="1"><g transform="translate(186.056764, 303.36923)"><g><path d="M 5.84375 0 L 1.015625 0 L 1.015625 -7.59375 L 5.71875 -7.59375 L 5.71875 -6.90625 L 1.78125 -6.90625 L 1.78125 -4.296875 L 5.46875 -4.296875 L 5.46875 -3.625 L 1.78125 -3.625 L 1.78125 -0.6875 L 5.84375 -0.6875 Z M 5.84375 0 "/></g></g></g><g fill="#6d4c41" fill-opacity="1"><g transform="translate(201.007778, 303.36923)"><g/></g></g><g fill="#6d4c41" fill-opacity="1"><g transform="translate(212.285463, 303.36923)"><g><path d="M 2.9375 0.1875 C 2.457031 0.1875 2.003906 0.09375 1.578125 -0.09375 C 1.148438 -0.289062 0.800781 -0.570312 0.53125 -0.9375 L 1.203125 -1.421875 C 1.378906 -1.140625 1.617188 -0.910156 1.921875 -0.734375 C 2.222656 -0.554688 2.5625 -0.46875 2.9375 -0.46875 C 3.207031 -0.46875 3.472656 -0.523438 3.734375 -0.640625 C 3.992188 -0.753906 4.207031 -0.921875 4.375 -1.140625 C 4.539062 -1.367188 4.625 -1.632812 4.625 -1.9375 C 4.625 -2.269531 4.539062 -2.535156 4.375 -2.734375 C 4.207031 -2.941406 4.003906 -3.097656 3.765625 -3.203125 C 3.523438 -3.316406 3.191406 -3.441406 2.765625 -3.578125 C 2.359375 -3.703125 2.007812 -3.84375 1.71875 -4 C 1.425781 -4.15625 1.1875 -4.367188 1 -4.640625 C 0.820312 -4.921875 0.734375 -5.273438 0.734375 -5.703125 C 0.734375 -6.160156 0.851562 -6.546875 1.09375 -6.859375 C 1.332031 -7.179688 1.632812 -7.414062 2 -7.5625 C 2.375 -7.71875 2.757812 -7.796875 3.15625 -7.796875 C 3.632812 -7.796875 4.0625 -7.707031 4.4375 -7.53125 C 4.820312 -7.351562 5.109375 -7.132812 5.296875 -6.875 L 4.6875 -6.375 C 4.519531 -6.613281 4.304688 -6.800781 4.046875 -6.9375 C 3.785156 -7.070312 3.476562 -7.140625 3.125 -7.140625 C 2.851562 -7.140625 2.59375 -7.082031 2.34375 -6.96875 C 2.101562 -6.863281 1.898438 -6.703125 1.734375 -6.484375 C 1.578125 -6.273438 1.5 -6.015625 1.5 -5.703125 C 1.5 -5.410156 1.570312 -5.171875 1.71875 -4.984375 C 1.863281 -4.796875 2.039062 -4.648438 2.25 -4.546875 C 2.46875 -4.453125 2.769531 -4.34375 3.15625 -4.21875 C 3.664062 -4.050781 4.0625 -3.894531 4.34375 -3.75 C 4.632812 -3.613281 4.882812 -3.40625 5.09375 -3.125 C 5.300781 -2.84375 5.40625 -2.46875 5.40625 -2 C 5.40625 -1.519531 5.285156 -1.113281 5.046875 -0.78125 C 4.816406 -0.457031 4.507812 -0.210938 4.125 -0.046875 C 3.75 0.109375 3.351562 0.1875 2.9375 0.1875 Z M 2.9375 0.1875 "/></g></g></g><g fill="#6d4c41" fill-opacity="1"><g transform="translate(226.935747, 303.36923)"><g><path d="M 1.78125 0 L 1.015625 0 L 1.015625 -7.59375 L 1.78125 -7.59375 L 1.78125 -4.296875 L 5.921875 -4.296875 L 5.921875 -7.59375 L 6.703125 -7.59375 L 6.703125 0 L 5.921875 0 L 5.921875 -3.59375 L 1.78125 -3.59375 Z M 1.78125 0 "/></g></g></g><g fill="#6d4c41" fill-opacity="1"><g transform="translate(243.240096, 303.36923)"><g><path d="M 4.5625 0.1875 C 3.820312 0.1875 3.144531 0.015625 2.53125 -0.328125 C 1.925781 -0.671875 1.453125 -1.144531 1.109375 -1.75 C 0.765625 -2.351562 0.59375 -3.035156 0.59375 -3.796875 C 0.59375 -4.554688 0.765625 -5.238281 1.109375 -5.84375 C 1.453125 -6.457031 1.925781 -6.9375 2.53125 -7.28125 C 3.144531 -7.625 3.820312 -7.796875 4.5625 -7.796875 C 5.300781 -7.796875 5.972656 -7.625 6.578125 -7.28125 C 7.191406 -6.9375 7.664062 -6.457031 8 -5.84375 C 8.34375 -5.238281 8.515625 -4.554688 8.515625 -3.796875 C 8.515625 -3.035156 8.34375 -2.351562 8 -1.75 C 7.664062 -1.144531 7.191406 -0.671875 6.578125 -0.328125 C 5.972656 0.015625 5.300781 0.1875 4.5625 0.1875 Z M 4.5625 -0.5 C 5.1875 -0.5 5.738281 -0.644531 6.21875 -0.9375 C 6.695312 -1.238281 7.0625 -1.640625 7.3125 -2.140625 C 7.570312 -2.648438 7.703125 -3.203125 7.703125 -3.796875 C 7.703125 -4.390625 7.570312 -4.941406 7.3125 -5.453125 C 7.0625 -5.960938 6.695312 -6.363281 6.21875 -6.65625 C 5.738281 -6.957031 5.1875 -7.109375 4.5625 -7.109375 C 3.9375 -7.109375 3.382812 -6.957031 2.90625 -6.65625 C 2.425781 -6.363281 2.054688 -5.960938 1.796875 -5.453125 C 1.546875 -4.941406 1.421875 -4.390625 1.421875 -3.796875 C 1.421875 -3.203125 1.546875 -2.648438 1.796875 -2.140625 C 2.054688 -1.640625 2.425781 -1.238281 2.90625 -0.9375 C 3.382812 -0.644531 3.9375 -0.5 4.5625 -0.5 Z M 4.5625 -0.5 "/></g></g></g><g fill="#6d4c41" fill-opacity="1"><g transform="translate(260.962223, 303.36923)"><g><path d="M 1.015625 0 L 1.015625 -7.59375 L 3.15625 -7.59375 C 3.945312 -7.59375 4.570312 -7.421875 5.03125 -7.078125 C 5.488281 -6.734375 5.71875 -6.234375 5.71875 -5.578125 C 5.71875 -5.128906 5.609375 -4.753906 5.390625 -4.453125 C 5.179688 -4.148438 4.882812 -3.921875 4.5 -3.765625 C 4.113281 -3.609375 3.660156 -3.53125 3.140625 -3.53125 L 1.78125 -3.53125 L 1.78125 0 Z M 3.09375 -4.1875 C 3.695312 -4.1875 4.15625 -4.300781 4.46875 -4.53125 C 4.789062 -4.769531 4.953125 -5.117188 4.953125 -5.578125 C 4.953125 -6.035156 4.789062 -6.375 4.46875 -6.59375 C 4.15625 -6.820312 3.695312 -6.9375 3.09375 -6.9375 L 1.78125 -6.9375 L 1.78125 -4.1875 Z M 3.09375 -4.1875 "/></g></g></g><g clip-path="url(#fc7967de8f)"><path fill="#4e342e" d="M 203.914062 77.125 C 208.46875 82.929688 211.277344 91.042969 211.277344 100.03125 C 211.277344 109.023438 208.46875 117.136719 203.914062 122.941406 C 200.699219 127.0625 196.609375 129.996094 192.054688 131.242188 C 200.011719 118.542969 196.265625 108.054688 192.582031 97.660156 C 189.367188 88.640625 186.214844 79.714844 193.800781 69.382812 C 197.640625 70.851562 201.105469 73.566406 203.914062 77.125 Z M 185.4375 68.230469 C 178.289062 80.152344 181.847656 90.140625 185.40625 100.1875 C 188.839844 109.832031 192.300781 119.570312 182.566406 131.367188 C 177.851562 130.183594 173.636719 127.1875 170.332031 122.941406 C 165.773438 117.136719 162.964844 109.023438 162.964844 100.03125 C 162.964844 91.042969 165.773438 82.929688 170.332031 77.125 C 174.324219 72.070312 179.601562 68.761719 185.4375 68.230469 Z M 185.4375 68.230469 " fill-opacity="1" fill-rule="nonzero"/></g><g clip-path="url(#1475460b64)"><path fill="#4e342e" d="M 109.78125 162.546875 C 111.0625 173.222656 116.492188 184.457031 125.761719 193.695312 C 135.03125 202.964844 146.234375 208.394531 156.910156 209.707031 C 164.460938 210.613281 171.703125 209.457031 177.664062 206.054688 C 156.441406 201.1875 149.449219 186.550781 142.554688 172.035156 C 136.558594 159.457031 130.628906 147.003906 112.183594 144.195312 C 109.75 149.65625 108.96875 155.992188 109.78125 162.546875 Z M 161.964844 143.507812 C 173.328125 154.777344 181.003906 169.226562 183.96875 184.925781 C 184.28125 168.257812 175.980469 152.589844 161.964844 143.507812 Z M 115.367188 159.488281 C 120.269531 171.503906 126.949219 182.710938 135.21875 192.730469 C 123.578125 185.519531 116.210938 173.128906 115.367188 159.488281 Z M 119.582031 134.394531 C 139.183594 139.296875 145.796875 153.214844 152.476562 167.261719 C 158.875 180.710938 165.335938 194.289062 187.464844 196.410156 C 191.085938 190.355469 192.332031 182.898438 191.398438 175.15625 C 190.085938 164.484375 184.65625 153.246094 175.417969 144.007812 C 166.148438 134.738281 154.945312 129.308594 144.269531 128.027344 C 135 126.90625 126.136719 128.964844 119.582031 134.394531 Z M 119.582031 134.394531 " fill-opacity="1" fill-rule="nonzero"/></g><g clip-path="url(#669c04dc86)"><path fill="#4e342e" d="M 265.210938 162.546875 C 263.898438 173.222656 258.46875 184.457031 249.230469 193.695312 C 239.960938 202.964844 228.757812 208.394531 218.082031 209.675781 C 210.53125 210.613281 203.289062 209.425781 197.328125 206.023438 C 218.550781 201.15625 225.542969 186.519531 232.4375 172.003906 C 238.433594 159.425781 244.363281 146.972656 262.808594 144.164062 C 265.242188 149.65625 266.023438 155.992188 265.210938 162.546875 Z M 213.027344 143.507812 C 201.664062 154.777344 193.988281 169.195312 191.023438 184.925781 C 190.679688 168.257812 199.011719 152.589844 213.027344 143.507812 Z M 259.625 159.488281 C 254.722656 171.503906 248.042969 182.710938 239.773438 192.730469 C 251.382812 185.519531 258.78125 173.128906 259.625 159.488281 Z M 255.410156 134.394531 C 235.808594 139.296875 229.195312 153.214844 222.515625 167.261719 C 216.117188 180.710938 209.65625 194.289062 187.527344 196.410156 C 183.9375 190.355469 182.660156 182.898438 183.59375 175.15625 C 184.875 164.484375 190.335938 153.246094 199.574219 144.007812 C 208.84375 134.738281 220.046875 129.308594 230.722656 128.027344 C 239.992188 126.90625 248.824219 128.964844 255.410156 134.394531 Z M 255.410156 134.394531 " fill-opacity="1" fill-rule="nonzero"/></g><path fill="#ffffff" d="M 183.40625 176.59375 C 181.316406 163.140625 173.605469 151.03125 161.964844 143.507812 C 172.578125 153.996094 179.941406 167.261719 183.3125 181.742188 C 183.21875 180.058594 183.25 178.339844 183.40625 176.59375 Z M 183.40625 176.59375 " fill-opacity="1" fill-rule="nonzero"/><path fill="#ffffff" d="M 213.027344 143.507812 C 201.386719 151.03125 193.675781 163.140625 191.585938 176.59375 C 191.742188 178.339844 191.773438 180.027344 191.710938 181.710938 C 195.050781 167.261719 202.445312 153.996094 213.027344 143.507812 Z M 213.027344 143.507812 " fill-opacity="1" fill-rule="nonzero"/><path fill="#ffffff" d="M 259.625 159.488281 C 254.722656 171.503906 248.042969 182.710938 239.773438 192.730469 C 251.382812 185.519531 258.78125 173.128906 259.625 159.488281 Z M 259.625 159.488281 " fill-opacity="1" fill-rule="nonzero"/><path fill="#ffffff" d="M 135.21875 192.730469 C 126.949219 182.710938 120.269531 171.503906 115.367188 159.488281 C 116.210938 173.128906 123.578125 185.519531 135.21875 192.730469 Z M 135.21875 192.730469 " fill-opacity="1" fill-rule="nonzero"/></svg>