<svg xmlns="http://www.w3.org/2000/svg" xmlns:xlink="http://www.w3.org/1999/xlink" width="250" zoomAndPan="magnify" viewBox="0 0 187.5 187.499992" height="250" preserveAspectRatio="xMidYMid meet" version="1.0"><defs><g/><clipPath id="dda3f18e6d"><path d="M 74 6.28125 L 113 6.28125 L 113 57 L 74 57 Z M 74 6.28125 " clip-rule="nonzero"/></clipPath><clipPath id="10ee2424aa"><path d="M 31.574219 53 L 97 53 L 97 118.480469 L 31.574219 118.480469 Z M 31.574219 53 " clip-rule="nonzero"/></clipPath><clipPath id="24ad76b17d"><path d="M 90 53 L 155.695312 53 L 155.695312 118.480469 L 90 118.480469 Z M 90 53 " clip-rule="nonzero"/></clipPath></defs><g fill="#d8efd3" fill-opacity="1"><g transform="translate(11.843155, 155.20785)"><g><path d="M 1.296875 -10.46875 C 1.296875 -12.507812 1.753906 -14.34375 2.671875 -15.96875 C 3.585938 -17.601562 4.84375 -18.878906 6.4375 -19.796875 C 8.03125 -20.722656 9.796875 -21.1875 11.734375 -21.1875 C 14.015625 -21.1875 16.003906 -20.632812 17.703125 -19.53125 C 19.410156 -18.4375 20.65625 -16.878906 21.4375 -14.859375 L 18.15625 -14.859375 C 17.570312 -16.117188 16.734375 -17.085938 15.640625 -17.765625 C 14.554688 -18.453125 13.253906 -18.796875 11.734375 -18.796875 C 10.273438 -18.796875 8.960938 -18.453125 7.796875 -17.765625 C 6.640625 -17.085938 5.726562 -16.125 5.0625 -14.875 C 4.40625 -13.625 4.078125 -12.15625 4.078125 -10.46875 C 4.078125 -8.8125 4.40625 -7.359375 5.0625 -6.109375 C 5.726562 -4.859375 6.640625 -3.890625 7.796875 -3.203125 C 8.960938 -2.523438 10.273438 -2.1875 11.734375 -2.1875 C 13.253906 -2.1875 14.554688 -2.519531 15.640625 -3.1875 C 16.734375 -3.863281 17.570312 -4.832031 18.15625 -6.09375 L 21.4375 -6.09375 C 20.65625 -4.09375 19.410156 -2.546875 17.703125 -1.453125 C 16.003906 -0.359375 14.015625 0.1875 11.734375 0.1875 C 9.796875 0.1875 8.03125 -0.265625 6.4375 -1.171875 C 4.84375 -2.085938 3.585938 -3.351562 2.671875 -4.96875 C 1.753906 -6.59375 1.296875 -8.425781 1.296875 -10.46875 Z M 1.296875 -10.46875 "/></g></g></g><g fill="#d8efd3" fill-opacity="1"><g transform="translate(35.017319, 155.20785)"><g><path d="M 16.90625 -16.453125 L 16.90625 0 L 14.171875 0 L 14.171875 -2.4375 C 13.648438 -1.59375 12.921875 -0.9375 11.984375 -0.46875 C 11.054688 0 10.035156 0.234375 8.921875 0.234375 C 7.640625 0.234375 6.488281 -0.0234375 5.46875 -0.546875 C 4.445312 -1.078125 3.640625 -1.875 3.046875 -2.9375 C 2.453125 -4 2.15625 -5.289062 2.15625 -6.8125 L 2.15625 -16.453125 L 4.859375 -16.453125 L 4.859375 -7.171875 C 4.859375 -5.554688 5.269531 -4.3125 6.09375 -3.4375 C 6.914062 -2.5625 8.035156 -2.125 9.453125 -2.125 C 10.910156 -2.125 12.0625 -2.570312 12.90625 -3.46875 C 13.75 -4.375 14.171875 -5.6875 14.171875 -7.40625 L 14.171875 -16.453125 Z M 16.90625 -16.453125 "/></g></g></g><g fill="#d8efd3" fill-opacity="1"><g transform="translate(54.22906, 155.20785)"><g><path d="M 5.046875 -13.421875 C 5.585938 -14.359375 6.390625 -15.140625 7.453125 -15.765625 C 8.523438 -16.398438 9.773438 -16.71875 11.203125 -16.71875 C 12.660156 -16.71875 13.984375 -16.367188 15.171875 -15.671875 C 16.359375 -14.972656 17.289062 -13.988281 17.96875 -12.71875 C 18.65625 -11.445312 19 -9.96875 19 -8.28125 C 19 -6.625 18.65625 -5.144531 17.96875 -3.84375 C 17.289062 -2.539062 16.359375 -1.53125 15.171875 -0.8125 C 13.984375 -0.09375 12.660156 0.265625 11.203125 0.265625 C 9.796875 0.265625 8.554688 -0.046875 7.484375 -0.671875 C 6.421875 -1.304688 5.609375 -2.09375 5.046875 -3.03125 L 5.046875 7.796875 L 2.3125 7.796875 L 2.3125 -16.453125 L 5.046875 -16.453125 Z M 16.203125 -8.28125 C 16.203125 -9.519531 15.953125 -10.597656 15.453125 -11.515625 C 14.953125 -12.441406 14.273438 -13.144531 13.421875 -13.625 C 12.578125 -14.101562 11.644531 -14.34375 10.625 -14.34375 C 9.625 -14.34375 8.695312 -14.097656 7.84375 -13.609375 C 7 -13.117188 6.320312 -12.40625 5.8125 -11.46875 C 5.300781 -10.539062 5.046875 -9.46875 5.046875 -8.25 C 5.046875 -7.007812 5.300781 -5.925781 5.8125 -5 C 6.320312 -4.070312 7 -3.359375 7.84375 -2.859375 C 8.695312 -2.367188 9.625 -2.125 10.625 -2.125 C 11.644531 -2.125 12.578125 -2.367188 13.421875 -2.859375 C 14.273438 -3.359375 14.953125 -4.070312 15.453125 -5 C 15.953125 -5.925781 16.203125 -7.019531 16.203125 -8.28125 Z M 16.203125 -8.28125 "/></g></g></g><g fill="#d8efd3" fill-opacity="1"><g transform="translate(74.521458, 155.20785)"><g><path d="M 5.046875 -13.421875 C 5.585938 -14.359375 6.390625 -15.140625 7.453125 -15.765625 C 8.523438 -16.398438 9.773438 -16.71875 11.203125 -16.71875 C 12.660156 -16.71875 13.984375 -16.367188 15.171875 -15.671875 C 16.359375 -14.972656 17.289062 -13.988281 17.96875 -12.71875 C 18.65625 -11.445312 19 -9.96875 19 -8.28125 C 19 -6.625 18.65625 -5.144531 17.96875 -3.84375 C 17.289062 -2.539062 16.359375 -1.53125 15.171875 -0.8125 C 13.984375 -0.09375 12.660156 0.265625 11.203125 0.265625 C 9.796875 0.265625 8.554688 -0.046875 7.484375 -0.671875 C 6.421875 -1.304688 5.609375 -2.09375 5.046875 -3.03125 L 5.046875 7.796875 L 2.3125 7.796875 L 2.3125 -16.453125 L 5.046875 -16.453125 Z M 16.203125 -8.28125 C 16.203125 -9.519531 15.953125 -10.597656 15.453125 -11.515625 C 14.953125 -12.441406 14.273438 -13.144531 13.421875 -13.625 C 12.578125 -14.101562 11.644531 -14.34375 10.625 -14.34375 C 9.625 -14.34375 8.695312 -14.097656 7.84375 -13.609375 C 7 -13.117188 6.320312 -12.40625 5.8125 -11.46875 C 5.300781 -10.539062 5.046875 -9.46875 5.046875 -8.25 C 5.046875 -7.007812 5.300781 -5.925781 5.8125 -5 C 6.320312 -4.070312 7 -3.359375 7.84375 -2.859375 C 8.695312 -2.367188 9.625 -2.125 10.625 -2.125 C 11.644531 -2.125 12.578125 -2.367188 13.421875 -2.859375 C 14.273438 -3.359375 14.953125 -4.070312 15.453125 -5 C 15.953125 -5.925781 16.203125 -7.019531 16.203125 -8.28125 Z M 16.203125 -8.28125 "/></g></g></g><g fill="#d8efd3" fill-opacity="1"><g transform="translate(94.813855, 155.20785)"><g><path d="M 1.296875 -8.28125 C 1.296875 -9.96875 1.632812 -11.445312 2.3125 -12.71875 C 2.988281 -13.988281 3.921875 -14.972656 5.109375 -15.671875 C 6.304688 -16.367188 7.632812 -16.71875 9.09375 -16.71875 C 10.53125 -16.71875 11.78125 -16.40625 12.84375 -15.78125 C 13.90625 -15.164062 14.695312 -14.390625 15.21875 -13.453125 L 15.21875 -16.453125 L 17.984375 -16.453125 L 17.984375 0 L 15.21875 0 L 15.21875 -3.0625 C 14.675781 -2.101562 13.867188 -1.304688 12.796875 -0.671875 C 11.734375 -0.046875 10.488281 0.265625 9.0625 0.265625 C 7.601562 0.265625 6.28125 -0.09375 5.09375 -0.8125 C 3.914062 -1.53125 2.988281 -2.539062 2.3125 -3.84375 C 1.632812 -5.144531 1.296875 -6.625 1.296875 -8.28125 Z M 15.21875 -8.25 C 15.21875 -9.488281 14.96875 -10.566406 14.46875 -11.484375 C 13.96875 -12.410156 13.289062 -13.117188 12.4375 -13.609375 C 11.59375 -14.097656 10.660156 -14.34375 9.640625 -14.34375 C 8.617188 -14.34375 7.6875 -14.101562 6.84375 -13.625 C 6 -13.144531 5.328125 -12.441406 4.828125 -11.515625 C 4.328125 -10.597656 4.078125 -9.519531 4.078125 -8.28125 C 4.078125 -7.019531 4.328125 -5.925781 4.828125 -5 C 5.328125 -4.070312 6 -3.359375 6.84375 -2.859375 C 7.6875 -2.367188 8.617188 -2.125 9.640625 -2.125 C 10.660156 -2.125 11.59375 -2.367188 12.4375 -2.859375 C 13.289062 -3.359375 13.96875 -4.070312 14.46875 -5 C 14.96875 -5.925781 15.21875 -7.007812 15.21875 -8.25 Z M 15.21875 -8.25 "/></g></g></g><g fill="#d8efd3" fill-opacity="1"><g transform="translate(115.106253, 155.20785)"><g/></g></g><g fill="#d8efd3" fill-opacity="1"><g transform="translate(123.12115, 155.20785)"><g><path d="M 12.84375 -20.921875 L 12.84375 -5.46875 C 12.84375 -3.738281 12.3125 -2.359375 11.25 -1.328125 C 10.195312 -0.304688 8.796875 0.203125 7.046875 0.203125 C 5.285156 0.203125 3.875 -0.316406 2.8125 -1.359375 C 1.757812 -2.410156 1.234375 -3.847656 1.234375 -5.671875 L 3.96875 -5.671875 C 3.976562 -4.648438 4.238281 -3.816406 4.75 -3.171875 C 5.257812 -2.535156 6.023438 -2.21875 7.046875 -2.21875 C 8.066406 -2.21875 8.828125 -2.519531 9.328125 -3.125 C 9.828125 -3.738281 10.078125 -4.519531 10.078125 -5.46875 L 10.078125 -20.921875 Z M 12.84375 -20.921875 "/></g></g></g><g fill="#d8efd3" fill-opacity="1"><g transform="translate(139.030871, 155.20785)"><g><path d="M 9.484375 0.265625 C 7.941406 0.265625 6.546875 -0.0820312 5.296875 -0.78125 C 4.046875 -1.476562 3.066406 -2.472656 2.359375 -3.765625 C 1.648438 -5.054688 1.296875 -6.550781 1.296875 -8.25 C 1.296875 -9.9375 1.660156 -11.421875 2.390625 -12.703125 C 3.117188 -13.992188 4.113281 -14.984375 5.375 -15.671875 C 6.632812 -16.367188 8.046875 -16.71875 9.609375 -16.71875 C 11.171875 -16.71875 12.582031 -16.367188 13.84375 -15.671875 C 15.101562 -14.984375 16.097656 -14 16.828125 -12.71875 C 17.554688 -11.445312 17.921875 -9.957031 17.921875 -8.25 C 17.921875 -6.550781 17.546875 -5.054688 16.796875 -3.765625 C 16.046875 -2.472656 15.03125 -1.476562 13.75 -0.78125 C 12.46875 -0.0820312 11.046875 0.265625 9.484375 0.265625 Z M 9.484375 -2.125 C 10.460938 -2.125 11.378906 -2.351562 12.234375 -2.8125 C 13.097656 -3.28125 13.796875 -3.972656 14.328125 -4.890625 C 14.859375 -5.804688 15.125 -6.925781 15.125 -8.25 C 15.125 -9.570312 14.863281 -10.691406 14.34375 -11.609375 C 13.820312 -12.535156 13.140625 -13.222656 12.296875 -13.671875 C 11.460938 -14.117188 10.554688 -14.34375 9.578125 -14.34375 C 8.578125 -14.34375 7.660156 -14.117188 6.828125 -13.671875 C 5.992188 -13.222656 5.328125 -12.535156 4.828125 -11.609375 C 4.328125 -10.691406 4.078125 -9.570312 4.078125 -8.25 C 4.078125 -6.914062 4.320312 -5.785156 4.8125 -4.859375 C 5.300781 -3.941406 5.957031 -3.253906 6.78125 -2.796875 C 7.601562 -2.347656 8.503906 -2.125 9.484375 -2.125 Z M 9.484375 -2.125 "/></g></g></g><g fill="#d8efd3" fill-opacity="1"><g transform="translate(158.242613, 155.20785)"><g><path d="M 16.484375 -16.453125 L 6.578125 7.75 L 3.75 7.75 L 7 -0.1875 L 0.359375 -16.453125 L 3.390625 -16.453125 L 8.546875 -3.125 L 13.65625 -16.453125 Z M 16.484375 -16.453125 "/></g></g></g><g fill="#d8efd3" fill-opacity="1"><g transform="translate(33.039546, 178.428484)"><g><path d="M 0.359375 -2.90625 C 0.359375 -3.476562 0.484375 -3.988281 0.734375 -4.4375 C 0.992188 -4.894531 1.34375 -5.25 1.78125 -5.5 C 2.226562 -5.757812 2.722656 -5.890625 3.265625 -5.890625 C 3.898438 -5.890625 4.453125 -5.734375 4.921875 -5.421875 C 5.390625 -5.117188 5.734375 -4.6875 5.953125 -4.125 L 5.046875 -4.125 C 4.890625 -4.476562 4.65625 -4.75 4.34375 -4.9375 C 4.039062 -5.125 3.679688 -5.21875 3.265625 -5.21875 C 2.859375 -5.21875 2.492188 -5.125 2.171875 -4.9375 C 1.847656 -4.75 1.59375 -4.476562 1.40625 -4.125 C 1.226562 -3.78125 1.140625 -3.375 1.140625 -2.90625 C 1.140625 -2.445312 1.226562 -2.039062 1.40625 -1.6875 C 1.59375 -1.34375 1.847656 -1.078125 2.171875 -0.890625 C 2.492188 -0.703125 2.859375 -0.609375 3.265625 -0.609375 C 3.679688 -0.609375 4.039062 -0.703125 4.34375 -0.890625 C 4.65625 -1.078125 4.890625 -1.34375 5.046875 -1.6875 L 5.953125 -1.6875 C 5.734375 -1.132812 5.390625 -0.707031 4.921875 -0.40625 C 4.453125 -0.101562 3.898438 0.046875 3.265625 0.046875 C 2.722656 0.046875 2.226562 -0.078125 1.78125 -0.328125 C 1.34375 -0.578125 0.992188 -0.925781 0.734375 -1.375 C 0.484375 -1.832031 0.359375 -2.34375 0.359375 -2.90625 Z M 0.359375 -2.90625 "/></g></g></g><g fill="#d8efd3" fill-opacity="1"><g transform="translate(46.144976, 178.428484)"><g><path d="M 3.28125 0.0625 C 2.738281 0.0625 2.242188 -0.0625 1.796875 -0.3125 C 1.359375 -0.570312 1.007812 -0.925781 0.75 -1.375 C 0.488281 -1.832031 0.359375 -2.34375 0.359375 -2.90625 C 0.359375 -3.476562 0.488281 -3.988281 0.75 -4.4375 C 1.007812 -4.894531 1.359375 -5.25 1.796875 -5.5 C 2.242188 -5.75 2.738281 -5.875 3.28125 -5.875 C 3.820312 -5.875 4.316406 -5.75 4.765625 -5.5 C 5.210938 -5.25 5.5625 -4.894531 5.8125 -4.4375 C 6.070312 -3.988281 6.203125 -3.476562 6.203125 -2.90625 C 6.203125 -2.332031 6.070312 -1.820312 5.8125 -1.375 C 5.5625 -0.925781 5.210938 -0.570312 4.765625 -0.3125 C 4.316406 -0.0625 3.820312 0.0625 3.28125 0.0625 Z M 3.28125 -0.59375 C 3.6875 -0.59375 4.050781 -0.6875 4.375 -0.875 C 4.695312 -1.070312 4.953125 -1.34375 5.140625 -1.6875 C 5.328125 -2.039062 5.421875 -2.445312 5.421875 -2.90625 C 5.421875 -3.375 5.328125 -3.78125 5.140625 -4.125 C 4.953125 -4.476562 4.695312 -4.75 4.375 -4.9375 C 4.050781 -5.125 3.6875 -5.21875 3.28125 -5.21875 C 2.863281 -5.21875 2.492188 -5.125 2.171875 -4.9375 C 1.847656 -4.75 1.59375 -4.476562 1.40625 -4.125 C 1.226562 -3.78125 1.140625 -3.375 1.140625 -2.90625 C 1.140625 -2.445312 1.226562 -2.039062 1.40625 -1.6875 C 1.59375 -1.34375 1.847656 -1.070312 2.171875 -0.875 C 2.503906 -0.6875 2.875 -0.59375 3.28125 -0.59375 Z M 3.28125 -0.59375 "/></g></g></g><g fill="#d8efd3" fill-opacity="1"><g transform="translate(59.367093, 178.428484)"><g><path d="M 3.9375 -5.8125 L 3.9375 -5.203125 L 1.40625 -5.203125 L 1.40625 -3.234375 L 3.453125 -3.234375 L 3.453125 -2.625 L 1.40625 -2.625 L 1.40625 0 L 0.640625 0 L 0.640625 -5.8125 Z M 3.9375 -5.8125 "/></g></g></g><g fill="#d8efd3" fill-opacity="1"><g transform="translate(70.238705, 178.428484)"><g><path d="M 3.9375 -5.8125 L 3.9375 -5.203125 L 1.40625 -5.203125 L 1.40625 -3.234375 L 3.453125 -3.234375 L 3.453125 -2.625 L 1.40625 -2.625 L 1.40625 0 L 0.640625 0 L 0.640625 -5.8125 Z M 3.9375 -5.8125 "/></g></g></g><g fill="#d8efd3" fill-opacity="1"><g transform="translate(81.110319, 178.428484)"><g><path d="M 1.40625 -5.203125 L 1.40625 -3.25 L 3.515625 -3.25 L 3.515625 -2.625 L 1.40625 -2.625 L 1.40625 -0.625 L 3.765625 -0.625 L 3.765625 0 L 0.640625 0 L 0.640625 -5.828125 L 3.765625 -5.828125 L 3.765625 -5.203125 Z M 1.40625 -5.203125 "/></g></g></g><g fill="#d8efd3" fill-opacity="1"><g transform="translate(92.056947, 178.428484)"><g><path d="M 1.40625 -5.203125 L 1.40625 -3.25 L 3.515625 -3.25 L 3.515625 -2.625 L 1.40625 -2.625 L 1.40625 -0.625 L 3.765625 -0.625 L 3.765625 0 L 0.640625 0 L 0.640625 -5.828125 L 3.765625 -5.828125 L 3.765625 -5.203125 Z M 1.40625 -5.203125 "/></g></g></g><g fill="#d8efd3" fill-opacity="1"><g transform="translate(103.003576, 178.428484)"><g/></g></g><g fill="#d8efd3" fill-opacity="1"><g transform="translate(111.899767, 178.428484)"><g><path d="M 2.484375 0.0625 C 2.097656 0.0625 1.753906 -0.00390625 1.453125 -0.140625 C 1.148438 -0.273438 0.910156 -0.460938 0.734375 -0.703125 C 0.566406 -0.953125 0.476562 -1.234375 0.46875 -1.546875 L 1.28125 -1.546875 C 1.3125 -1.273438 1.425781 -1.046875 1.625 -0.859375 C 1.820312 -0.671875 2.109375 -0.578125 2.484375 -0.578125 C 2.847656 -0.578125 3.132812 -0.664062 3.34375 -0.84375 C 3.550781 -1.03125 3.65625 -1.265625 3.65625 -1.546875 C 3.65625 -1.773438 3.59375 -1.957031 3.46875 -2.09375 C 3.34375 -2.226562 3.1875 -2.332031 3 -2.40625 C 2.820312 -2.476562 2.578125 -2.554688 2.265625 -2.640625 C 1.878906 -2.742188 1.570312 -2.84375 1.34375 -2.9375 C 1.113281 -3.039062 0.914062 -3.195312 0.75 -3.40625 C 0.59375 -3.625 0.515625 -3.914062 0.515625 -4.28125 C 0.515625 -4.59375 0.59375 -4.867188 0.75 -5.109375 C 0.914062 -5.359375 1.144531 -5.550781 1.4375 -5.6875 C 1.726562 -5.820312 2.0625 -5.890625 2.4375 -5.890625 C 2.976562 -5.890625 3.421875 -5.753906 3.765625 -5.484375 C 4.117188 -5.210938 4.316406 -4.847656 4.359375 -4.390625 L 3.53125 -4.390625 C 3.5 -4.617188 3.378906 -4.816406 3.171875 -4.984375 C 2.972656 -5.148438 2.703125 -5.234375 2.359375 -5.234375 C 2.046875 -5.234375 1.785156 -5.148438 1.578125 -4.984375 C 1.378906 -4.828125 1.28125 -4.601562 1.28125 -4.3125 C 1.28125 -4.09375 1.335938 -3.914062 1.453125 -3.78125 C 1.578125 -3.65625 1.726562 -3.554688 1.90625 -3.484375 C 2.082031 -3.410156 2.328125 -3.332031 2.640625 -3.25 C 3.023438 -3.144531 3.332031 -3.039062 3.5625 -2.9375 C 3.800781 -2.832031 4.003906 -2.671875 4.171875 -2.453125 C 4.335938 -2.242188 4.421875 -1.953125 4.421875 -1.578125 C 4.421875 -1.296875 4.34375 -1.03125 4.1875 -0.78125 C 4.039062 -0.53125 3.820312 -0.328125 3.53125 -0.171875 C 3.238281 -0.015625 2.890625 0.0625 2.484375 0.0625 Z M 2.484375 0.0625 "/></g></g></g><g fill="#d8efd3" fill-opacity="1"><g transform="translate(123.463192, 178.428484)"><g><path d="M 5.125 -5.8125 L 5.125 0 L 4.359375 0 L 4.359375 -2.640625 L 1.40625 -2.640625 L 1.40625 0 L 0.640625 0 L 0.640625 -5.8125 L 1.40625 -5.8125 L 1.40625 -3.265625 L 4.359375 -3.265625 L 4.359375 -5.8125 Z M 5.125 -5.8125 "/></g></g></g><g fill="#d8efd3" fill-opacity="1"><g transform="translate(135.901809, 178.428484)"><g><path d="M 3.28125 0.0625 C 2.738281 0.0625 2.242188 -0.0625 1.796875 -0.3125 C 1.359375 -0.570312 1.007812 -0.925781 0.75 -1.375 C 0.488281 -1.832031 0.359375 -2.34375 0.359375 -2.90625 C 0.359375 -3.476562 0.488281 -3.988281 0.75 -4.4375 C 1.007812 -4.894531 1.359375 -5.25 1.796875 -5.5 C 2.242188 -5.75 2.738281 -5.875 3.28125 -5.875 C 3.820312 -5.875 4.316406 -5.75 4.765625 -5.5 C 5.210938 -5.25 5.5625 -4.894531 5.8125 -4.4375 C 6.070312 -3.988281 6.203125 -3.476562 6.203125 -2.90625 C 6.203125 -2.332031 6.070312 -1.820312 5.8125 -1.375 C 5.5625 -0.925781 5.210938 -0.570312 4.765625 -0.3125 C 4.316406 -0.0625 3.820312 0.0625 3.28125 0.0625 Z M 3.28125 -0.59375 C 3.6875 -0.59375 4.050781 -0.6875 4.375 -0.875 C 4.695312 -1.070312 4.953125 -1.34375 5.140625 -1.6875 C 5.328125 -2.039062 5.421875 -2.445312 5.421875 -2.90625 C 5.421875 -3.375 5.328125 -3.78125 5.140625 -4.125 C 4.953125 -4.476562 4.695312 -4.75 4.375 -4.9375 C 4.050781 -5.125 3.6875 -5.21875 3.28125 -5.21875 C 2.863281 -5.21875 2.492188 -5.125 2.171875 -4.9375 C 1.847656 -4.75 1.59375 -4.476562 1.40625 -4.125 C 1.226562 -3.78125 1.140625 -3.375 1.140625 -2.90625 C 1.140625 -2.445312 1.226562 -2.039062 1.40625 -1.6875 C 1.59375 -1.34375 1.847656 -1.070312 2.171875 -0.875 C 2.503906 -0.6875 2.875 -0.59375 3.28125 -0.59375 Z M 3.28125 -0.59375 "/></g></g></g><g fill="#d8efd3" fill-opacity="1"><g transform="translate(149.123927, 178.428484)"><g><path d="M 4.53125 -4.109375 C 4.53125 -3.628906 4.363281 -3.226562 4.03125 -2.90625 C 3.695312 -2.582031 3.191406 -2.421875 2.515625 -2.421875 L 1.40625 -2.421875 L 1.40625 0 L 0.640625 0 L 0.640625 -5.8125 L 2.515625 -5.8125 C 3.171875 -5.8125 3.671875 -5.648438 4.015625 -5.328125 C 4.359375 -5.015625 4.53125 -4.609375 4.53125 -4.109375 Z M 2.515625 -3.046875 C 2.941406 -3.046875 3.253906 -3.140625 3.453125 -3.328125 C 3.648438 -3.515625 3.75 -3.773438 3.75 -4.109375 C 3.75 -4.828125 3.335938 -5.1875 2.515625 -5.1875 L 1.40625 -5.1875 L 1.40625 -3.046875 Z M 2.515625 -3.046875 "/></g></g></g><g clip-path="url(#dda3f18e6d)"><path fill="#d8efd3" d="M 106.457031 13.300781 C 110.050781 17.878906 112.269531 24.285156 112.269531 31.378906 C 112.269531 38.472656 110.050781 44.875 106.457031 49.457031 C 103.917969 52.707031 100.691406 55.023438 97.097656 56.007812 C 103.378906 45.984375 100.421875 37.707031 97.515625 29.507812 C 94.976562 22.386719 92.492188 15.34375 98.476562 7.191406 C 101.503906 8.347656 104.238281 10.492188 106.457031 13.300781 Z M 91.875 6.28125 C 86.234375 15.6875 89.042969 23.570312 91.851562 31.5 C 94.558594 39.113281 97.292969 46.796875 89.609375 56.105469 C 85.890625 55.171875 82.5625 52.808594 79.953125 49.457031 C 76.359375 44.875 74.140625 38.472656 74.140625 31.378906 C 74.140625 24.285156 76.359375 17.878906 79.953125 13.300781 C 83.105469 9.308594 87.269531 6.699219 91.875 6.28125 Z M 91.875 6.28125 " fill-opacity="1" fill-rule="nonzero"/></g><g clip-path="url(#10ee2424aa)"><path fill="#d8efd3" d="M 32.171875 80.714844 C 33.179688 89.136719 37.464844 98.003906 44.78125 105.292969 C 52.097656 112.609375 60.9375 116.894531 69.363281 117.929688 C 75.324219 118.644531 81.039062 117.734375 85.742188 115.046875 C 68.992188 111.207031 63.476562 99.652344 58.03125 88.199219 C 53.304688 78.273438 48.625 68.445312 34.066406 66.230469 C 32.144531 70.539062 31.53125 75.539062 32.171875 80.714844 Z M 73.351562 65.6875 C 82.316406 74.582031 88.378906 85.984375 90.71875 98.375 C 90.964844 85.21875 84.410156 72.855469 73.351562 65.6875 Z M 36.578125 78.300781 C 40.445312 87.78125 45.71875 96.625 52.246094 104.53125 C 43.058594 98.839844 37.246094 89.0625 36.578125 78.300781 Z M 39.902344 58.496094 C 55.371094 62.363281 60.59375 73.347656 65.863281 84.433594 C 70.914062 95.046875 76.011719 105.761719 93.476562 107.4375 C 96.332031 102.660156 97.316406 96.773438 96.578125 90.664062 C 95.542969 82.242188 91.257812 73.375 83.96875 66.082031 C 76.652344 58.765625 67.8125 54.480469 59.386719 53.472656 C 52.070312 52.585938 45.078125 54.210938 39.902344 58.496094 Z M 39.902344 58.496094 " fill-opacity="1" fill-rule="nonzero"/></g><g clip-path="url(#24ad76b17d)"><path fill="#d8efd3" d="M 154.832031 80.714844 C 153.796875 89.136719 149.511719 98.003906 142.21875 105.292969 C 134.902344 112.609375 126.0625 116.894531 117.636719 117.90625 C 111.675781 118.644531 105.964844 117.707031 101.257812 115.023438 C 118.007812 111.179688 123.523438 99.628906 128.96875 88.175781 C 133.699219 78.25 138.378906 68.421875 152.933594 66.207031 C 154.855469 70.539062 155.46875 75.539062 154.832031 80.714844 Z M 113.648438 65.6875 C 104.683594 74.582031 98.625 85.960938 96.285156 98.375 C 96.011719 85.21875 102.589844 72.855469 113.648438 65.6875 Z M 150.421875 78.300781 C 146.554688 87.78125 141.285156 96.625 134.757812 104.53125 C 143.917969 98.839844 149.757812 89.0625 150.421875 78.300781 Z M 147.097656 58.496094 C 131.628906 62.363281 126.40625 73.347656 121.136719 84.433594 C 116.085938 95.046875 110.988281 105.761719 93.523438 107.4375 C 90.691406 102.660156 89.683594 96.773438 90.421875 90.664062 C 91.429688 82.242188 95.742188 73.375 103.03125 66.082031 C 110.347656 58.765625 119.191406 54.480469 127.613281 53.472656 C 134.929688 52.585938 141.898438 54.210938 147.097656 58.496094 Z M 147.097656 58.496094 " fill-opacity="1" fill-rule="nonzero"/></g><path fill="#3b3030" d="M 90.273438 91.796875 C 88.625 81.179688 82.539062 71.625 73.351562 65.6875 C 81.726562 73.964844 87.539062 84.433594 90.199219 95.859375 C 90.125 94.53125 90.152344 93.175781 90.273438 91.796875 Z M 90.273438 91.796875 " fill-opacity="1" fill-rule="nonzero"/><path fill="#3b3030" d="M 113.648438 65.6875 C 104.460938 71.625 98.378906 81.179688 96.726562 91.796875 C 96.851562 93.175781 96.875 94.507812 96.824219 95.835938 C 99.460938 84.433594 105.296875 73.964844 113.648438 65.6875 Z M 113.648438 65.6875 " fill-opacity="1" fill-rule="nonzero"/><path fill="#3b3030" d="M 150.421875 78.300781 C 146.554688 87.78125 141.285156 96.625 134.757812 104.53125 C 143.917969 98.839844 149.757812 89.0625 150.421875 78.300781 Z M 150.421875 78.300781 " fill-opacity="1" fill-rule="nonzero"/><path fill="#3b3030" d="M 52.246094 104.53125 C 45.71875 96.625 40.445312 87.78125 36.578125 78.300781 C 37.246094 89.0625 43.058594 98.839844 52.246094 104.53125 Z M 52.246094 104.53125 " fill-opacity="1" fill-rule="nonzero"/></svg>