<svg xmlns="http://www.w3.org/2000/svg" xmlns:xlink="http://www.w3.org/1999/xlink" width="300" zoomAndPan="magnify" viewBox="0 0 224.87999 225" height="300" preserveAspectRatio="xMidYMid meet" version="1.0"><defs><g/><clipPath id="7f28493279"><path d="M 93 24.960938 L 132 24.960938 L 132 75 L 93 75 Z M 93 24.960938 " clip-rule="nonzero"/></clipPath><clipPath id="25cd192b74"><path d="M 50.289062 72 L 116 72 L 116 137.402344 L 50.289062 137.402344 Z M 50.289062 72 " clip-rule="nonzero"/></clipPath><clipPath id="62f210ef52"><path d="M 109 72 L 174.675781 72 L 174.675781 137.402344 L 109 137.402344 Z M 109 72 " clip-rule="nonzero"/></clipPath></defs><g fill="#d8efd3" fill-opacity="1"><g transform="translate(30.485496, 174.431608)"><g><path d="M 1.296875 -10.515625 C 1.296875 -12.566406 1.753906 -14.410156 2.671875 -16.046875 C 3.597656 -17.679688 4.859375 -18.957031 6.453125 -19.875 C 8.054688 -20.800781 9.832031 -21.265625 11.78125 -21.265625 C 14.070312 -21.265625 16.066406 -20.710938 17.765625 -19.609375 C 19.472656 -18.503906 20.722656 -16.9375 21.515625 -14.90625 L 18.21875 -14.90625 C 17.644531 -16.175781 16.804688 -17.148438 15.703125 -17.828125 C 14.609375 -18.515625 13.300781 -18.859375 11.78125 -18.859375 C 10.3125 -18.859375 8.992188 -18.515625 7.828125 -17.828125 C 6.660156 -17.148438 5.742188 -16.179688 5.078125 -14.921875 C 4.421875 -13.671875 4.09375 -12.203125 4.09375 -10.515625 C 4.09375 -8.847656 4.421875 -7.382812 5.078125 -6.125 C 5.742188 -4.875 6.660156 -3.90625 7.828125 -3.21875 C 8.992188 -2.539062 10.3125 -2.203125 11.78125 -2.203125 C 13.300781 -2.203125 14.609375 -2.535156 15.703125 -3.203125 C 16.804688 -3.878906 17.644531 -4.847656 18.21875 -6.109375 L 21.515625 -6.109375 C 20.722656 -4.109375 19.472656 -2.554688 17.765625 -1.453125 C 16.066406 -0.359375 14.070312 0.1875 11.78125 0.1875 C 9.832031 0.1875 8.054688 -0.269531 6.453125 -1.1875 C 4.859375 -2.101562 3.597656 -3.375 2.671875 -5 C 1.753906 -6.625 1.296875 -8.460938 1.296875 -10.515625 Z M 1.296875 -10.515625 "/></g></g></g><g fill="#d8efd3" fill-opacity="1"><g transform="translate(53.743942, 174.431608)"><g><path d="M 16.953125 -16.515625 L 16.953125 0 L 14.21875 0 L 14.21875 -2.4375 C 13.695312 -1.59375 12.96875 -0.9375 12.03125 -0.46875 C 11.101562 0 10.078125 0.234375 8.953125 0.234375 C 7.660156 0.234375 6.503906 -0.03125 5.484375 -0.5625 C 4.460938 -1.09375 3.65625 -1.890625 3.0625 -2.953125 C 2.46875 -4.015625 2.171875 -5.3125 2.171875 -6.84375 L 2.171875 -16.515625 L 4.875 -16.515625 L 4.875 -7.203125 C 4.875 -5.578125 5.285156 -4.328125 6.109375 -3.453125 C 6.929688 -2.578125 8.054688 -2.140625 9.484375 -2.140625 C 10.953125 -2.140625 12.109375 -2.585938 12.953125 -3.484375 C 13.796875 -4.390625 14.21875 -5.707031 14.21875 -7.4375 L 14.21875 -16.515625 Z M 16.953125 -16.515625 "/></g></g></g><g fill="#d8efd3" fill-opacity="1"><g transform="translate(73.025554, 174.431608)"><g><path d="M 5.0625 -13.46875 C 5.601562 -14.40625 6.410156 -15.191406 7.484375 -15.828125 C 8.554688 -16.460938 9.804688 -16.78125 11.234375 -16.78125 C 12.703125 -16.78125 14.03125 -16.425781 15.21875 -15.71875 C 16.414062 -15.019531 17.351562 -14.03125 18.03125 -12.75 C 18.71875 -11.476562 19.0625 -10 19.0625 -8.3125 C 19.0625 -6.644531 18.71875 -5.15625 18.03125 -3.84375 C 17.351562 -2.539062 16.414062 -1.53125 15.21875 -0.8125 C 14.03125 -0.09375 12.703125 0.265625 11.234375 0.265625 C 9.828125 0.265625 8.585938 -0.046875 7.515625 -0.671875 C 6.441406 -1.304688 5.625 -2.097656 5.0625 -3.046875 L 5.0625 7.828125 L 2.3125 7.828125 L 2.3125 -16.515625 L 5.0625 -16.515625 Z M 16.265625 -8.3125 C 16.265625 -9.5625 16.015625 -10.644531 15.515625 -11.5625 C 15.015625 -12.488281 14.335938 -13.191406 13.484375 -13.671875 C 12.628906 -14.160156 11.691406 -14.40625 10.671875 -14.40625 C 9.660156 -14.40625 8.726562 -14.15625 7.875 -13.65625 C 7.019531 -13.164062 6.335938 -12.453125 5.828125 -11.515625 C 5.316406 -10.585938 5.0625 -9.507812 5.0625 -8.28125 C 5.0625 -7.039062 5.316406 -5.953125 5.828125 -5.015625 C 6.335938 -4.078125 7.019531 -3.363281 7.875 -2.875 C 8.726562 -2.382812 9.660156 -2.140625 10.671875 -2.140625 C 11.691406 -2.140625 12.628906 -2.382812 13.484375 -2.875 C 14.335938 -3.363281 15.015625 -4.078125 15.515625 -5.015625 C 16.015625 -5.953125 16.265625 -7.050781 16.265625 -8.3125 Z M 16.265625 -8.3125 "/></g></g></g><g fill="#d8efd3" fill-opacity="1"><g transform="translate(93.391753, 174.431608)"><g><path d="M 5.0625 -13.46875 C 5.601562 -14.40625 6.410156 -15.191406 7.484375 -15.828125 C 8.554688 -16.460938 9.804688 -16.78125 11.234375 -16.78125 C 12.703125 -16.78125 14.03125 -16.425781 15.21875 -15.71875 C 16.414062 -15.019531 17.351562 -14.03125 18.03125 -12.75 C 18.71875 -11.476562 19.0625 -10 19.0625 -8.3125 C 19.0625 -6.644531 18.71875 -5.15625 18.03125 -3.84375 C 17.351562 -2.539062 16.414062 -1.53125 15.21875 -0.8125 C 14.03125 -0.09375 12.703125 0.265625 11.234375 0.265625 C 9.828125 0.265625 8.585938 -0.046875 7.515625 -0.671875 C 6.441406 -1.304688 5.625 -2.097656 5.0625 -3.046875 L 5.0625 7.828125 L 2.3125 7.828125 L 2.3125 -16.515625 L 5.0625 -16.515625 Z M 16.265625 -8.3125 C 16.265625 -9.5625 16.015625 -10.644531 15.515625 -11.5625 C 15.015625 -12.488281 14.335938 -13.191406 13.484375 -13.671875 C 12.628906 -14.160156 11.691406 -14.40625 10.671875 -14.40625 C 9.660156 -14.40625 8.726562 -14.15625 7.875 -13.65625 C 7.019531 -13.164062 6.335938 -12.453125 5.828125 -11.515625 C 5.316406 -10.585938 5.0625 -9.507812 5.0625 -8.28125 C 5.0625 -7.039062 5.316406 -5.953125 5.828125 -5.015625 C 6.335938 -4.078125 7.019531 -3.363281 7.875 -2.875 C 8.726562 -2.382812 9.660156 -2.140625 10.671875 -2.140625 C 11.691406 -2.140625 12.628906 -2.382812 13.484375 -2.875 C 14.335938 -3.363281 15.015625 -4.078125 15.515625 -5.015625 C 16.015625 -5.953125 16.265625 -7.050781 16.265625 -8.3125 Z M 16.265625 -8.3125 "/></g></g></g><g fill="#d8efd3" fill-opacity="1"><g transform="translate(113.757951, 174.431608)"><g><path d="M 1.296875 -8.3125 C 1.296875 -10 1.632812 -11.476562 2.3125 -12.75 C 3 -14.03125 3.9375 -15.019531 5.125 -15.71875 C 6.320312 -16.425781 7.65625 -16.78125 9.125 -16.78125 C 10.570312 -16.78125 11.828125 -16.46875 12.890625 -15.84375 C 13.953125 -15.21875 14.742188 -14.4375 15.265625 -13.5 L 15.265625 -16.515625 L 18.046875 -16.515625 L 18.046875 0 L 15.265625 0 L 15.265625 -3.078125 C 14.722656 -2.109375 13.914062 -1.304688 12.84375 -0.671875 C 11.769531 -0.046875 10.519531 0.265625 9.09375 0.265625 C 7.632812 0.265625 6.3125 -0.09375 5.125 -0.8125 C 3.9375 -1.53125 3 -2.539062 2.3125 -3.84375 C 1.632812 -5.15625 1.296875 -6.644531 1.296875 -8.3125 Z M 15.265625 -8.28125 C 15.265625 -9.53125 15.015625 -10.613281 14.515625 -11.53125 C 14.015625 -12.457031 13.335938 -13.164062 12.484375 -13.65625 C 11.628906 -14.15625 10.691406 -14.40625 9.671875 -14.40625 C 8.648438 -14.40625 7.71875 -14.160156 6.875 -13.671875 C 6.03125 -13.191406 5.351562 -12.488281 4.84375 -11.5625 C 4.34375 -10.644531 4.09375 -9.5625 4.09375 -8.3125 C 4.09375 -7.050781 4.34375 -5.953125 4.84375 -5.015625 C 5.351562 -4.078125 6.03125 -3.363281 6.875 -2.875 C 7.71875 -2.382812 8.648438 -2.140625 9.671875 -2.140625 C 10.691406 -2.140625 11.628906 -2.382812 12.484375 -2.875 C 13.335938 -3.363281 14.015625 -4.078125 14.515625 -5.015625 C 15.015625 -5.953125 15.265625 -7.039062 15.265625 -8.28125 Z M 15.265625 -8.28125 "/></g></g></g><g fill="#d8efd3" fill-opacity="1"><g transform="translate(134.12415, 174.431608)"><g/></g></g><g fill="#d8efd3" fill-opacity="1"><g transform="translate(142.168197, 174.431608)"><g><path d="M 12.890625 -21 L 12.890625 -5.484375 C 12.890625 -3.753906 12.359375 -2.375 11.296875 -1.34375 C 10.234375 -0.3125 8.828125 0.203125 7.078125 0.203125 C 5.304688 0.203125 3.890625 -0.320312 2.828125 -1.375 C 1.765625 -2.425781 1.234375 -3.863281 1.234375 -5.6875 L 3.96875 -5.6875 C 3.988281 -4.664062 4.253906 -3.832031 4.765625 -3.1875 C 5.285156 -2.550781 6.054688 -2.234375 7.078125 -2.234375 C 8.097656 -2.234375 8.859375 -2.535156 9.359375 -3.140625 C 9.867188 -3.753906 10.125 -4.535156 10.125 -5.484375 L 10.125 -21 Z M 12.890625 -21 "/></g></g></g><g fill="#d8efd3" fill-opacity="1"><g transform="translate(158.13578, 174.431608)"><g><path d="M 9.515625 0.265625 C 7.972656 0.265625 6.570312 -0.0820312 5.3125 -0.78125 C 4.0625 -1.488281 3.078125 -2.488281 2.359375 -3.78125 C 1.648438 -5.070312 1.296875 -6.570312 1.296875 -8.28125 C 1.296875 -9.96875 1.660156 -11.457031 2.390625 -12.75 C 3.128906 -14.050781 4.128906 -15.046875 5.390625 -15.734375 C 6.660156 -16.429688 8.078125 -16.78125 9.640625 -16.78125 C 11.203125 -16.78125 12.613281 -16.429688 13.875 -15.734375 C 15.144531 -15.046875 16.144531 -14.054688 16.875 -12.765625 C 17.613281 -11.484375 17.984375 -9.988281 17.984375 -8.28125 C 17.984375 -6.570312 17.601562 -5.070312 16.84375 -3.78125 C 16.09375 -2.488281 15.078125 -1.488281 13.796875 -0.78125 C 12.515625 -0.0820312 11.085938 0.265625 9.515625 0.265625 Z M 9.515625 -2.140625 C 10.503906 -2.140625 11.429688 -2.367188 12.296875 -2.828125 C 13.160156 -3.296875 13.859375 -3.988281 14.390625 -4.90625 C 14.921875 -5.832031 15.1875 -6.957031 15.1875 -8.28125 C 15.1875 -9.601562 14.921875 -10.726562 14.390625 -11.65625 C 13.867188 -12.582031 13.1875 -13.269531 12.34375 -13.71875 C 11.507812 -14.175781 10.597656 -14.40625 9.609375 -14.40625 C 8.609375 -14.40625 7.691406 -14.175781 6.859375 -13.71875 C 6.023438 -13.269531 5.351562 -12.582031 4.84375 -11.65625 C 4.34375 -10.726562 4.09375 -9.601562 4.09375 -8.28125 C 4.09375 -6.9375 4.335938 -5.800781 4.828125 -4.875 C 5.328125 -3.957031 5.988281 -3.269531 6.8125 -2.8125 C 7.632812 -2.363281 8.535156 -2.140625 9.515625 -2.140625 Z M 9.515625 -2.140625 "/></g></g></g><g fill="#d8efd3" fill-opacity="1"><g transform="translate(177.417392, 174.431608)"><g><path d="M 16.53125 -16.515625 L 6.59375 7.765625 L 3.765625 7.765625 L 7.015625 -0.1875 L 0.359375 -16.515625 L 3.40625 -16.515625 L 8.578125 -3.140625 L 13.703125 -16.515625 Z M 16.53125 -16.515625 "/></g></g></g><g fill="#d8efd3" fill-opacity="1"><g transform="translate(51.758981, 197.736713)"><g><path d="M 0.359375 -2.921875 C 0.359375 -3.484375 0.484375 -3.988281 0.734375 -4.4375 C 0.992188 -4.894531 1.34375 -5.253906 1.78125 -5.515625 C 2.226562 -5.773438 2.722656 -5.90625 3.265625 -5.90625 C 3.898438 -5.90625 4.453125 -5.75 4.921875 -5.4375 C 5.398438 -5.132812 5.75 -4.703125 5.96875 -4.140625 L 5.0625 -4.140625 C 4.894531 -4.492188 4.660156 -4.765625 4.359375 -4.953125 C 4.054688 -5.140625 3.691406 -5.234375 3.265625 -5.234375 C 2.859375 -5.234375 2.492188 -5.140625 2.171875 -4.953125 C 1.847656 -4.765625 1.59375 -4.492188 1.40625 -4.140625 C 1.226562 -3.796875 1.140625 -3.390625 1.140625 -2.921875 C 1.140625 -2.453125 1.226562 -2.039062 1.40625 -1.6875 C 1.59375 -1.34375 1.847656 -1.078125 2.171875 -0.890625 C 2.492188 -0.703125 2.859375 -0.609375 3.265625 -0.609375 C 3.691406 -0.609375 4.054688 -0.703125 4.359375 -0.890625 C 4.660156 -1.078125 4.894531 -1.347656 5.0625 -1.703125 L 5.96875 -1.703125 C 5.75 -1.140625 5.398438 -0.707031 4.921875 -0.40625 C 4.453125 -0.101562 3.898438 0.046875 3.265625 0.046875 C 2.722656 0.046875 2.226562 -0.078125 1.78125 -0.328125 C 1.34375 -0.578125 0.992188 -0.925781 0.734375 -1.375 C 0.484375 -1.832031 0.359375 -2.347656 0.359375 -2.921875 Z M 0.359375 -2.921875 "/></g></g></g><g fill="#d8efd3" fill-opacity="1"><g transform="translate(64.912074, 197.736713)"><g><path d="M 3.28125 0.0625 C 2.738281 0.0625 2.242188 -0.0625 1.796875 -0.3125 C 1.359375 -0.570312 1.007812 -0.925781 0.75 -1.375 C 0.488281 -1.832031 0.359375 -2.347656 0.359375 -2.921875 C 0.359375 -3.484375 0.488281 -3.988281 0.75 -4.4375 C 1.007812 -4.894531 1.359375 -5.25 1.796875 -5.5 C 2.242188 -5.757812 2.738281 -5.890625 3.28125 -5.890625 C 3.832031 -5.890625 4.328125 -5.757812 4.765625 -5.5 C 5.210938 -5.25 5.566406 -4.898438 5.828125 -4.453125 C 6.085938 -4.003906 6.21875 -3.492188 6.21875 -2.921875 C 6.21875 -2.347656 6.085938 -1.832031 5.828125 -1.375 C 5.566406 -0.925781 5.210938 -0.570312 4.765625 -0.3125 C 4.328125 -0.0625 3.832031 0.0625 3.28125 0.0625 Z M 3.28125 -0.609375 C 3.6875 -0.609375 4.050781 -0.703125 4.375 -0.890625 C 4.707031 -1.078125 4.96875 -1.34375 5.15625 -1.6875 C 5.34375 -2.039062 5.4375 -2.453125 5.4375 -2.921875 C 5.4375 -3.390625 5.34375 -3.796875 5.15625 -4.140625 C 4.96875 -4.492188 4.710938 -4.765625 4.390625 -4.953125 C 4.066406 -5.140625 3.695312 -5.234375 3.28125 -5.234375 C 2.875 -5.234375 2.507812 -5.140625 2.1875 -4.953125 C 1.863281 -4.765625 1.609375 -4.492188 1.421875 -4.140625 C 1.234375 -3.796875 1.140625 -3.390625 1.140625 -2.921875 C 1.140625 -2.453125 1.234375 -2.039062 1.421875 -1.6875 C 1.609375 -1.34375 1.863281 -1.078125 2.1875 -0.890625 C 2.507812 -0.703125 2.875 -0.609375 3.28125 -0.609375 Z M 3.28125 -0.609375 "/></g></g></g><g fill="#d8efd3" fill-opacity="1"><g transform="translate(78.182277, 197.736713)"><g><path d="M 3.9375 -5.828125 L 3.9375 -5.203125 L 1.40625 -5.203125 L 1.40625 -3.25 L 3.453125 -3.25 L 3.453125 -2.625 L 1.40625 -2.625 L 1.40625 0 L 0.640625 0 L 0.640625 -5.828125 Z M 3.9375 -5.828125 "/></g></g></g><g fill="#d8efd3" fill-opacity="1"><g transform="translate(89.093428, 197.736713)"><g><path d="M 3.9375 -5.828125 L 3.9375 -5.203125 L 1.40625 -5.203125 L 1.40625 -3.25 L 3.453125 -3.25 L 3.453125 -2.625 L 1.40625 -2.625 L 1.40625 0 L 0.640625 0 L 0.640625 -5.828125 Z M 3.9375 -5.828125 "/></g></g></g><g fill="#d8efd3" fill-opacity="1"><g transform="translate(100.004581, 197.736713)"><g><path d="M 1.40625 -5.203125 L 1.40625 -3.265625 L 3.53125 -3.265625 L 3.53125 -2.640625 L 1.40625 -2.640625 L 1.40625 -0.625 L 3.78125 -0.625 L 3.78125 0 L 0.640625 0 L 0.640625 -5.828125 L 3.78125 -5.828125 L 3.78125 -5.203125 Z M 1.40625 -5.203125 "/></g></g></g><g fill="#d8efd3" fill-opacity="1"><g transform="translate(110.991021, 197.736713)"><g><path d="M 1.40625 -5.203125 L 1.40625 -3.265625 L 3.53125 -3.265625 L 3.53125 -2.640625 L 1.40625 -2.640625 L 1.40625 -0.625 L 3.78125 -0.625 L 3.78125 0 L 0.640625 0 L 0.640625 -5.828125 L 3.78125 -5.828125 L 3.78125 -5.203125 Z M 1.40625 -5.203125 "/></g></g></g><g fill="#d8efd3" fill-opacity="1"><g transform="translate(121.977462, 197.736713)"><g/></g></g><g fill="#d8efd3" fill-opacity="1"><g transform="translate(130.906007, 197.736713)"><g><path d="M 2.484375 0.0625 C 2.109375 0.0625 1.765625 -0.00390625 1.453125 -0.140625 C 1.148438 -0.273438 0.910156 -0.460938 0.734375 -0.703125 C 0.566406 -0.953125 0.476562 -1.238281 0.46875 -1.5625 L 1.28125 -1.5625 C 1.3125 -1.28125 1.425781 -1.046875 1.625 -0.859375 C 1.820312 -0.671875 2.109375 -0.578125 2.484375 -0.578125 C 2.847656 -0.578125 3.132812 -0.664062 3.34375 -0.84375 C 3.550781 -1.03125 3.65625 -1.269531 3.65625 -1.5625 C 3.65625 -1.78125 3.59375 -1.957031 3.46875 -2.09375 C 3.351562 -2.238281 3.203125 -2.347656 3.015625 -2.421875 C 2.828125 -2.492188 2.582031 -2.570312 2.28125 -2.65625 C 1.894531 -2.75 1.582031 -2.84375 1.34375 -2.9375 C 1.113281 -3.039062 0.914062 -3.203125 0.75 -3.421875 C 0.59375 -3.640625 0.515625 -3.925781 0.515625 -4.28125 C 0.515625 -4.601562 0.59375 -4.882812 0.75 -5.125 C 0.914062 -5.375 1.144531 -5.566406 1.4375 -5.703125 C 1.726562 -5.835938 2.0625 -5.90625 2.4375 -5.90625 C 2.988281 -5.90625 3.4375 -5.765625 3.78125 -5.484375 C 4.132812 -5.210938 4.332031 -4.851562 4.375 -4.40625 L 3.53125 -4.40625 C 3.507812 -4.625 3.394531 -4.816406 3.1875 -4.984375 C 2.976562 -5.160156 2.703125 -5.25 2.359375 -5.25 C 2.046875 -5.25 1.785156 -5.164062 1.578125 -5 C 1.378906 -4.832031 1.28125 -4.601562 1.28125 -4.3125 C 1.28125 -4.101562 1.335938 -3.929688 1.453125 -3.796875 C 1.578125 -3.660156 1.726562 -3.554688 1.90625 -3.484375 C 2.082031 -3.421875 2.332031 -3.34375 2.65625 -3.25 C 3.039062 -3.144531 3.347656 -3.039062 3.578125 -2.9375 C 3.804688 -2.832031 4.003906 -2.671875 4.171875 -2.453125 C 4.347656 -2.242188 4.4375 -1.957031 4.4375 -1.59375 C 4.4375 -1.300781 4.359375 -1.03125 4.203125 -0.78125 C 4.054688 -0.53125 3.832031 -0.328125 3.53125 -0.171875 C 3.238281 -0.015625 2.890625 0.0625 2.484375 0.0625 Z M 2.484375 0.0625 "/></g></g></g><g fill="#d8efd3" fill-opacity="1"><g transform="translate(142.511487, 197.736713)"><g><path d="M 5.125 -5.828125 L 5.125 0 L 4.375 0 L 4.375 -2.640625 L 1.40625 -2.640625 L 1.40625 0 L 0.640625 0 L 0.640625 -5.828125 L 1.40625 -5.828125 L 1.40625 -3.265625 L 4.375 -3.265625 L 4.375 -5.828125 Z M 5.125 -5.828125 "/></g></g></g><g fill="#d8efd3" fill-opacity="1"><g transform="translate(154.995342, 197.736713)"><g><path d="M 3.28125 0.0625 C 2.738281 0.0625 2.242188 -0.0625 1.796875 -0.3125 C 1.359375 -0.570312 1.007812 -0.925781 0.75 -1.375 C 0.488281 -1.832031 0.359375 -2.347656 0.359375 -2.921875 C 0.359375 -3.484375 0.488281 -3.988281 0.75 -4.4375 C 1.007812 -4.894531 1.359375 -5.25 1.796875 -5.5 C 2.242188 -5.757812 2.738281 -5.890625 3.28125 -5.890625 C 3.832031 -5.890625 4.328125 -5.757812 4.765625 -5.5 C 5.210938 -5.25 5.566406 -4.898438 5.828125 -4.453125 C 6.085938 -4.003906 6.21875 -3.492188 6.21875 -2.921875 C 6.21875 -2.347656 6.085938 -1.832031 5.828125 -1.375 C 5.566406 -0.925781 5.210938 -0.570312 4.765625 -0.3125 C 4.328125 -0.0625 3.832031 0.0625 3.28125 0.0625 Z M 3.28125 -0.609375 C 3.6875 -0.609375 4.050781 -0.703125 4.375 -0.890625 C 4.707031 -1.078125 4.96875 -1.34375 5.15625 -1.6875 C 5.34375 -2.039062 5.4375 -2.453125 5.4375 -2.921875 C 5.4375 -3.390625 5.34375 -3.796875 5.15625 -4.140625 C 4.96875 -4.492188 4.710938 -4.765625 4.390625 -4.953125 C 4.066406 -5.140625 3.695312 -5.234375 3.28125 -5.234375 C 2.875 -5.234375 2.507812 -5.140625 2.1875 -4.953125 C 1.863281 -4.765625 1.609375 -4.492188 1.421875 -4.140625 C 1.234375 -3.796875 1.140625 -3.390625 1.140625 -2.921875 C 1.140625 -2.453125 1.234375 -2.039062 1.421875 -1.6875 C 1.609375 -1.34375 1.863281 -1.078125 2.1875 -0.890625 C 2.507812 -0.703125 2.875 -0.609375 3.28125 -0.609375 Z M 3.28125 -0.609375 "/></g></g></g><g fill="#d8efd3" fill-opacity="1"><g transform="translate(168.265547, 197.736713)"><g><path d="M 4.546875 -4.125 C 4.546875 -3.632812 4.378906 -3.226562 4.046875 -2.90625 C 3.710938 -2.59375 3.207031 -2.4375 2.53125 -2.4375 L 1.40625 -2.4375 L 1.40625 0 L 0.640625 0 L 0.640625 -5.828125 L 2.53125 -5.828125 C 3.1875 -5.828125 3.6875 -5.664062 4.03125 -5.34375 C 4.375 -5.03125 4.546875 -4.625 4.546875 -4.125 Z M 2.53125 -3.0625 C 2.945312 -3.0625 3.253906 -3.148438 3.453125 -3.328125 C 3.660156 -3.515625 3.765625 -3.78125 3.765625 -4.125 C 3.765625 -4.84375 3.351562 -5.203125 2.53125 -5.203125 L 1.40625 -5.203125 L 1.40625 -3.0625 Z M 2.53125 -3.0625 "/></g></g></g><g clip-path="url(#7f28493279)"><path fill="#d8efd3" d="M 125.4375 32.007812 C 129.046875 36.605469 131.269531 43.03125 131.269531 50.152344 C 131.269531 57.269531 129.046875 63.695312 125.4375 68.292969 C 122.890625 71.558594 119.652344 73.878906 116.042969 74.871094 C 122.347656 64.808594 119.378906 56.503906 116.464844 48.273438 C 113.917969 41.128906 111.421875 34.058594 117.425781 25.875 C 120.46875 27.039062 123.210938 29.1875 125.4375 32.007812 Z M 110.800781 24.960938 C 105.140625 34.40625 107.960938 42.316406 110.777344 50.273438 C 113.496094 57.914062 116.242188 65.625 108.527344 74.96875 C 104.796875 74.027344 101.457031 71.65625 98.839844 68.292969 C 95.230469 63.695312 93.003906 57.269531 93.003906 50.152344 C 93.003906 43.03125 95.230469 36.605469 98.839844 32.007812 C 102.003906 28.003906 106.179688 25.382812 110.800781 24.960938 Z M 110.800781 24.960938 " fill-opacity="1" fill-rule="nonzero"/></g><g clip-path="url(#25cd192b74)"><path fill="#d8efd3" d="M 50.882812 99.664062 C 51.898438 108.117188 56.199219 117.015625 63.539062 124.332031 C 70.882812 131.671875 79.753906 135.976562 88.210938 137.011719 C 94.191406 137.730469 99.925781 136.816406 104.648438 134.121094 C 87.839844 130.265625 82.300781 118.671875 76.839844 107.175781 C 72.09375 97.214844 67.394531 87.351562 52.789062 85.128906 C 50.859375 89.453125 50.242188 94.472656 50.882812 99.664062 Z M 92.214844 84.585938 C 101.210938 93.507812 107.292969 104.953125 109.640625 117.386719 C 109.886719 104.1875 103.3125 91.777344 92.214844 84.585938 Z M 55.308594 97.238281 C 59.191406 106.757812 64.480469 115.632812 71.03125 123.566406 C 61.808594 117.855469 55.976562 108.042969 55.308594 97.238281 Z M 58.644531 77.367188 C 74.167969 81.246094 79.410156 92.273438 84.699219 103.394531 C 89.765625 114.050781 94.882812 124.800781 112.410156 126.484375 C 115.277344 121.6875 116.265625 115.78125 115.523438 109.648438 C 114.484375 101.195312 110.183594 92.296875 102.867188 84.980469 C 95.527344 77.636719 86.652344 73.335938 78.199219 72.324219 C 70.855469 71.433594 63.835938 73.066406 58.644531 77.367188 Z M 58.644531 77.367188 " fill-opacity="1" fill-rule="nonzero"/></g><g clip-path="url(#62f210ef52)"><path fill="#d8efd3" d="M 173.984375 99.664062 C 172.945312 108.117188 168.644531 117.015625 161.328125 124.332031 C 153.988281 131.671875 145.113281 135.976562 136.660156 136.988281 C 130.675781 137.730469 124.941406 136.789062 120.21875 134.097656 C 137.03125 130.238281 142.566406 118.648438 148.03125 107.152344 C 152.777344 97.191406 157.472656 87.328125 172.082031 85.101562 C 174.007812 89.453125 174.628906 94.472656 173.984375 99.664062 Z M 132.65625 84.585938 C 123.65625 93.507812 117.574219 104.929688 115.226562 117.386719 C 114.957031 104.1875 121.554688 91.777344 132.65625 84.585938 Z M 169.558594 97.238281 C 165.679688 106.757812 160.390625 115.632812 153.839844 123.566406 C 163.035156 117.855469 168.890625 108.042969 169.558594 97.238281 Z M 166.222656 77.367188 C 150.699219 81.246094 145.457031 92.273438 140.167969 103.394531 C 135.101562 114.050781 129.984375 124.800781 112.457031 126.484375 C 109.617188 121.6875 108.601562 115.78125 109.34375 109.648438 C 110.359375 101.195312 114.683594 92.296875 122 84.980469 C 129.34375 77.636719 138.214844 73.335938 146.671875 72.324219 C 154.011719 71.433594 161.007812 73.066406 166.222656 77.367188 Z M 166.222656 77.367188 " fill-opacity="1" fill-rule="nonzero"/></g><path fill="#86ab89" d="M 109.195312 110.785156 C 107.539062 100.132812 101.433594 90.542969 92.214844 84.585938 C 100.617188 92.890625 106.453125 103.394531 109.121094 114.863281 C 109.046875 113.53125 109.074219 112.171875 109.195312 110.785156 Z M 109.195312 110.785156 " fill-opacity="1" fill-rule="nonzero"/><path fill="#86ab89" d="M 132.65625 84.585938 C 123.433594 90.542969 117.328125 100.132812 115.671875 110.785156 C 115.796875 112.171875 115.820312 113.503906 115.769531 114.839844 C 118.417969 103.394531 124.273438 92.890625 132.65625 84.585938 Z M 132.65625 84.585938 " fill-opacity="1" fill-rule="nonzero"/><path fill="#86ab89" d="M 169.558594 97.238281 C 165.679688 106.757812 160.390625 115.632812 153.839844 123.566406 C 163.035156 117.855469 168.890625 108.042969 169.558594 97.238281 Z M 169.558594 97.238281 " fill-opacity="1" fill-rule="nonzero"/><path fill="#86ab89" d="M 71.03125 123.566406 C 64.480469 115.632812 59.191406 106.757812 55.308594 97.238281 C 55.976562 108.042969 61.808594 117.855469 71.03125 123.566406 Z M 71.03125 123.566406 " fill-opacity="1" fill-rule="nonzero"/></svg>