<svg xmlns="http://www.w3.org/2000/svg" xmlns:xlink="http://www.w3.org/1999/xlink" width="300" zoomAndPan="magnify" viewBox="0 0 224.87999 225" height="300" preserveAspectRatio="xMidYMid meet" version="1.0"><defs><g/><clipPath id="530d08184d"><path d="M 52.820312 25.777344 L 172.003906 25.777344 L 172.003906 141.214844 L 52.820312 141.214844 Z M 52.820312 25.777344 " clip-rule="nonzero"/></clipPath></defs><path fill="#d8efd3" d="M 96.894531 98.8125 C 91.585938 89.996094 86.503906 81.550781 77.082031 75.914062 C 73.980469 74.054688 74.976562 69.308594 78.566406 68.875 C 89.183594 67.597656 102.898438 73.148438 114.023438 84.273438 C 127.6875 97.9375 132.941406 115.507812 127.464844 126.449219 C 126.4375 128.496094 123.8125 129.148438 121.925781 127.847656 C 109.011719 118.9375 102.609375 108.300781 96.894531 98.8125 " fill-opacity="1" fill-rule="nonzero"/><path fill="#272020" d="M 154.082031 77.375 C 153.140625 75.777344 151.183594 75.082031 149.453125 75.746094 C 138.511719 79.917969 132.855469 87.3125 127.449219 95.996094 C 129.105469 99.03125 130.441406 102.144531 131.425781 105.285156 C 134.089844 113.800781 133.847656 121.898438 130.746094 128.089844 C 130.460938 128.664062 130.109375 129.183594 129.703125 129.648438 C 133.683594 127.25 137.582031 124.21875 141.210938 120.59375 C 155.320312 106.484375 160.460938 88.210938 154.082031 77.375 " fill-opacity="1" fill-rule="nonzero"/><path fill="#d8efd3" d="M 141.828125 75.914062 C 144.933594 74.054688 143.9375 69.308594 140.34375 68.875 C 132.03125 67.875 121.816406 71.0625 112.433594 77.835938 C 113.867188 79.042969 115.265625 80.324219 116.617188 81.679688 C 120.128906 85.1875 123.15625 88.96875 125.640625 92.914062 C 129.847656 86.316406 134.539062 80.277344 141.828125 75.914062 " fill-opacity="1" fill-rule="nonzero"/><path fill="#272020" d="M 64.832031 77.375 C 65.773438 75.777344 67.726562 75.082031 69.460938 75.746094 C 82.230469 80.617188 87.800781 89.871094 94.171875 100.453125 C 99.683594 109.605469 105.816406 119.792969 117.617188 128.664062 C 120.152344 130.570312 119.382812 134.550781 116.320312 135.382812 C 105.382812 138.347656 89.96875 132.859375 77.703125 120.59375 C 63.59375 106.484375 58.453125 88.210938 64.832031 77.375 " fill-opacity="1" fill-rule="nonzero"/><g clip-path="url(#530d08184d)"><path fill="#272020" d="M 155.542969 44.226562 C 144.6875 32.867188 129.386719 25.789062 112.433594 25.789062 C 104.273438 25.789062 96.5 27.429688 89.417969 30.398438 C 74.164062 36.789062 62.128906 49.335938 56.429688 64.9375 C 54.09375 71.316406 52.820312 78.210938 52.820312 85.402344 C 52.820312 91.554688 53.753906 97.488281 55.484375 103.070312 C 54.78125 99.574219 54.414062 95.957031 54.414062 92.253906 C 54.414062 83.699219 56.378906 75.601562 59.882812 68.390625 C 66.203125 55.386719 77.523438 45.261719 91.347656 40.519531 C 96.910156 38.609375 102.882812 37.570312 109.097656 37.570312 C 123.710938 37.570312 136.984375 43.304688 146.796875 52.644531 C 157.257812 62.605469 163.78125 76.667969 163.78125 92.253906 C 163.78125 94.265625 163.671875 96.25 163.460938 98.207031 C 161.425781 117.019531 149.847656 132.96875 133.664062 141.121094 C 151.667969 134.257812 165.484375 118.921875 170.246094 99.988281 C 171.421875 95.320312 172.050781 90.433594 172.050781 85.402344 C 172.050781 69.433594 165.765625 54.929688 155.542969 44.226562 " fill-opacity="1" fill-rule="nonzero"/></g><g fill="#d8efd3" fill-opacity="1"><g transform="translate(44.483895, 178.085826)"><g><path d="M 1.078125 -8.71875 C 1.078125 -10.414062 1.457031 -11.941406 2.21875 -13.296875 C 2.988281 -14.660156 4.035156 -15.722656 5.359375 -16.484375 C 6.679688 -17.253906 8.148438 -17.640625 9.765625 -17.640625 C 11.660156 -17.640625 13.316406 -17.179688 14.734375 -16.265625 C 16.148438 -15.347656 17.1875 -14.050781 17.84375 -12.375 L 15.109375 -12.375 C 14.628906 -13.414062 13.9375 -14.21875 13.03125 -14.78125 C 12.125 -15.351562 11.035156 -15.640625 9.765625 -15.640625 C 8.546875 -15.640625 7.453125 -15.351562 6.484375 -14.78125 C 5.523438 -14.21875 4.769531 -13.414062 4.21875 -12.375 C 3.664062 -11.332031 3.390625 -10.113281 3.390625 -8.71875 C 3.390625 -7.332031 3.664062 -6.117188 4.21875 -5.078125 C 4.769531 -4.035156 5.523438 -3.234375 6.484375 -2.671875 C 7.453125 -2.109375 8.546875 -1.828125 9.765625 -1.828125 C 11.035156 -1.828125 12.125 -2.101562 13.03125 -2.65625 C 13.9375 -3.21875 14.628906 -4.023438 15.109375 -5.078125 L 17.84375 -5.078125 C 17.1875 -3.410156 16.148438 -2.117188 14.734375 -1.203125 C 13.316406 -0.296875 11.660156 0.15625 9.765625 0.15625 C 8.148438 0.15625 6.679688 -0.222656 5.359375 -0.984375 C 4.035156 -1.742188 2.988281 -2.796875 2.21875 -4.140625 C 1.457031 -5.492188 1.078125 -7.019531 1.078125 -8.71875 Z M 1.078125 -8.71875 "/></g></g></g><g fill="#d8efd3" fill-opacity="1"><g transform="translate(63.770549, 178.085826)"><g><path d="M 14.0625 -13.6875 L 14.0625 0 L 11.796875 0 L 11.796875 -2.03125 C 11.359375 -1.320312 10.75 -0.769531 9.96875 -0.375 C 9.195312 0.0078125 8.347656 0.203125 7.421875 0.203125 C 6.359375 0.203125 5.398438 -0.015625 4.546875 -0.453125 C 3.691406 -0.898438 3.019531 -1.5625 2.53125 -2.4375 C 2.039062 -3.320312 1.796875 -4.398438 1.796875 -5.671875 L 1.796875 -13.6875 L 4.046875 -13.6875 L 4.046875 -5.96875 C 4.046875 -4.625 4.382812 -3.585938 5.0625 -2.859375 C 5.75 -2.140625 6.6875 -1.78125 7.875 -1.78125 C 9.082031 -1.78125 10.035156 -2.148438 10.734375 -2.890625 C 11.441406 -3.640625 11.796875 -4.734375 11.796875 -6.171875 L 11.796875 -13.6875 Z M 14.0625 -13.6875 "/></g></g></g><g fill="#d8efd3" fill-opacity="1"><g transform="translate(79.759483, 178.085826)"><g><path d="M 4.203125 -11.171875 C 4.648438 -11.953125 5.316406 -12.601562 6.203125 -13.125 C 7.097656 -13.65625 8.132812 -13.921875 9.3125 -13.921875 C 10.53125 -13.921875 11.632812 -13.628906 12.625 -13.046875 C 13.613281 -12.460938 14.390625 -11.640625 14.953125 -10.578125 C 15.523438 -9.523438 15.8125 -8.296875 15.8125 -6.890625 C 15.8125 -5.515625 15.523438 -4.285156 14.953125 -3.203125 C 14.390625 -2.117188 13.613281 -1.273438 12.625 -0.671875 C 11.632812 -0.078125 10.53125 0.21875 9.3125 0.21875 C 8.144531 0.21875 7.113281 -0.0390625 6.21875 -0.5625 C 5.332031 -1.082031 4.660156 -1.734375 4.203125 -2.515625 L 4.203125 6.5 L 1.921875 6.5 L 1.921875 -13.6875 L 4.203125 -13.6875 Z M 13.484375 -6.890625 C 13.484375 -7.921875 13.273438 -8.820312 12.859375 -9.59375 C 12.453125 -10.363281 11.894531 -10.945312 11.1875 -11.34375 C 10.476562 -11.738281 9.695312 -11.9375 8.84375 -11.9375 C 8.007812 -11.9375 7.238281 -11.734375 6.53125 -11.328125 C 5.820312 -10.921875 5.253906 -10.328125 4.828125 -9.546875 C 4.410156 -8.773438 4.203125 -7.882812 4.203125 -6.875 C 4.203125 -5.84375 4.410156 -4.9375 4.828125 -4.15625 C 5.253906 -3.382812 5.820312 -2.796875 6.53125 -2.390625 C 7.238281 -1.984375 8.007812 -1.78125 8.84375 -1.78125 C 9.695312 -1.78125 10.476562 -1.984375 11.1875 -2.390625 C 11.894531 -2.796875 12.453125 -3.382812 12.859375 -4.15625 C 13.273438 -4.9375 13.484375 -5.847656 13.484375 -6.890625 Z M 13.484375 -6.890625 "/></g></g></g><g fill="#d8efd3" fill-opacity="1"><g transform="translate(96.647797, 178.085826)"><g><path d="M 4.203125 -11.171875 C 4.648438 -11.953125 5.316406 -12.601562 6.203125 -13.125 C 7.097656 -13.65625 8.132812 -13.921875 9.3125 -13.921875 C 10.53125 -13.921875 11.632812 -13.628906 12.625 -13.046875 C 13.613281 -12.460938 14.390625 -11.640625 14.953125 -10.578125 C 15.523438 -9.523438 15.8125 -8.296875 15.8125 -6.890625 C 15.8125 -5.515625 15.523438 -4.285156 14.953125 -3.203125 C 14.390625 -2.117188 13.613281 -1.273438 12.625 -0.671875 C 11.632812 -0.078125 10.53125 0.21875 9.3125 0.21875 C 8.144531 0.21875 7.113281 -0.0390625 6.21875 -0.5625 C 5.332031 -1.082031 4.660156 -1.734375 4.203125 -2.515625 L 4.203125 6.5 L 1.921875 6.5 L 1.921875 -13.6875 L 4.203125 -13.6875 Z M 13.484375 -6.890625 C 13.484375 -7.921875 13.273438 -8.820312 12.859375 -9.59375 C 12.453125 -10.363281 11.894531 -10.945312 11.1875 -11.34375 C 10.476562 -11.738281 9.695312 -11.9375 8.84375 -11.9375 C 8.007812 -11.9375 7.238281 -11.734375 6.53125 -11.328125 C 5.820312 -10.921875 5.253906 -10.328125 4.828125 -9.546875 C 4.410156 -8.773438 4.203125 -7.882812 4.203125 -6.875 C 4.203125 -5.84375 4.410156 -4.9375 4.828125 -4.15625 C 5.253906 -3.382812 5.820312 -2.796875 6.53125 -2.390625 C 7.238281 -1.984375 8.007812 -1.78125 8.84375 -1.78125 C 9.695312 -1.78125 10.476562 -1.984375 11.1875 -2.390625 C 11.894531 -2.796875 12.453125 -3.382812 12.859375 -4.15625 C 13.273438 -4.9375 13.484375 -5.847656 13.484375 -6.890625 Z M 13.484375 -6.890625 "/></g></g></g><g fill="#d8efd3" fill-opacity="1"><g transform="translate(113.536111, 178.085826)"><g><path d="M 1.078125 -6.890625 C 1.078125 -8.296875 1.359375 -9.523438 1.921875 -10.578125 C 2.484375 -11.640625 3.257812 -12.460938 4.25 -13.046875 C 5.25 -13.628906 6.351562 -13.921875 7.5625 -13.921875 C 8.769531 -13.921875 9.8125 -13.660156 10.6875 -13.140625 C 11.570312 -12.628906 12.234375 -11.976562 12.671875 -11.1875 L 12.671875 -13.6875 L 14.96875 -13.6875 L 14.96875 0 L 12.671875 0 L 12.671875 -2.546875 C 12.222656 -1.742188 11.550781 -1.082031 10.65625 -0.5625 C 9.757812 -0.0390625 8.722656 0.21875 7.546875 0.21875 C 6.328125 0.21875 5.222656 -0.078125 4.234375 -0.671875 C 3.253906 -1.273438 2.484375 -2.117188 1.921875 -3.203125 C 1.359375 -4.285156 1.078125 -5.515625 1.078125 -6.890625 Z M 12.671875 -6.875 C 12.671875 -7.90625 12.460938 -8.800781 12.046875 -9.5625 C 11.628906 -10.332031 11.066406 -10.921875 10.359375 -11.328125 C 9.648438 -11.734375 8.867188 -11.9375 8.015625 -11.9375 C 7.171875 -11.9375 6.394531 -11.738281 5.6875 -11.34375 C 4.988281 -10.945312 4.429688 -10.363281 4.015625 -9.59375 C 3.597656 -8.820312 3.390625 -7.921875 3.390625 -6.890625 C 3.390625 -5.847656 3.597656 -4.9375 4.015625 -4.15625 C 4.429688 -3.382812 4.988281 -2.796875 5.6875 -2.390625 C 6.394531 -1.984375 7.171875 -1.78125 8.015625 -1.78125 C 8.867188 -1.78125 9.648438 -1.984375 10.359375 -2.390625 C 11.066406 -2.796875 11.628906 -3.382812 12.046875 -4.15625 C 12.460938 -4.9375 12.671875 -5.84375 12.671875 -6.875 Z M 12.671875 -6.875 "/></g></g></g><g fill="#d8efd3" fill-opacity="1"><g transform="translate(130.424425, 178.085826)"><g/></g></g><g fill="#d8efd3" fill-opacity="1"><g transform="translate(137.094808, 178.085826)"><g><path d="M 10.6875 -17.421875 L 10.6875 -4.546875 C 10.6875 -3.117188 10.242188 -1.972656 9.359375 -1.109375 C 8.484375 -0.253906 7.320312 0.171875 5.875 0.171875 C 4.40625 0.171875 3.226562 -0.265625 2.34375 -1.140625 C 1.46875 -2.015625 1.03125 -3.207031 1.03125 -4.71875 L 3.296875 -4.71875 C 3.316406 -3.875 3.535156 -3.179688 3.953125 -2.640625 C 4.378906 -2.109375 5.019531 -1.84375 5.875 -1.84375 C 6.71875 -1.84375 7.347656 -2.097656 7.765625 -2.609375 C 8.179688 -3.117188 8.390625 -3.765625 8.390625 -4.546875 L 8.390625 -17.421875 Z M 10.6875 -17.421875 "/></g></g></g><g fill="#d8efd3" fill-opacity="1"><g transform="translate(150.335639, 178.085826)"><g><path d="M 7.890625 0.21875 C 6.609375 0.21875 5.445312 -0.0703125 4.40625 -0.65625 C 3.363281 -1.238281 2.546875 -2.066406 1.953125 -3.140625 C 1.367188 -4.210938 1.078125 -5.457031 1.078125 -6.875 C 1.078125 -8.269531 1.378906 -9.503906 1.984375 -10.578125 C 2.585938 -11.648438 3.414062 -12.472656 4.46875 -13.046875 C 5.519531 -13.628906 6.695312 -13.921875 8 -13.921875 C 9.289062 -13.921875 10.460938 -13.628906 11.515625 -13.046875 C 12.566406 -12.472656 13.394531 -11.65625 14 -10.59375 C 14.613281 -9.53125 14.921875 -8.289062 14.921875 -6.875 C 14.921875 -5.457031 14.609375 -4.210938 13.984375 -3.140625 C 13.359375 -2.066406 12.507812 -1.238281 11.4375 -0.65625 C 10.375 -0.0703125 9.191406 0.21875 7.890625 0.21875 Z M 7.890625 -1.78125 C 8.710938 -1.78125 9.476562 -1.96875 10.1875 -2.34375 C 10.90625 -2.726562 11.484375 -3.300781 11.921875 -4.0625 C 12.367188 -4.832031 12.59375 -5.769531 12.59375 -6.875 C 12.59375 -7.96875 12.375 -8.894531 11.9375 -9.65625 C 11.507812 -10.425781 10.941406 -11 10.234375 -11.375 C 9.535156 -11.75 8.78125 -11.9375 7.96875 -11.9375 C 7.132812 -11.9375 6.367188 -11.75 5.671875 -11.375 C 4.984375 -11 4.429688 -10.425781 4.015625 -9.65625 C 3.597656 -8.894531 3.390625 -7.96875 3.390625 -6.875 C 3.390625 -5.757812 3.59375 -4.816406 4 -4.046875 C 4.414062 -3.273438 4.960938 -2.703125 5.640625 -2.328125 C 6.328125 -1.960938 7.078125 -1.78125 7.890625 -1.78125 Z M 7.890625 -1.78125 "/></g></g></g><g fill="#d8efd3" fill-opacity="1"><g transform="translate(166.324573, 178.085826)"><g><path d="M 13.71875 -13.6875 L 5.46875 6.453125 L 3.125 6.453125 L 5.828125 -0.15625 L 0.296875 -13.6875 L 2.828125 -13.6875 L 7.125 -2.59375 L 11.375 -13.6875 Z M 13.71875 -13.6875 "/></g></g></g><g fill="#d8efd3" fill-opacity="1"><g transform="translate(51.758981, 200.150588)"><g><path d="M 0.359375 -2.921875 C 0.359375 -3.484375 0.484375 -3.988281 0.734375 -4.4375 C 0.992188 -4.894531 1.34375 -5.253906 1.78125 -5.515625 C 2.226562 -5.773438 2.722656 -5.90625 3.265625 -5.90625 C 3.898438 -5.90625 4.453125 -5.75 4.921875 -5.4375 C 5.398438 -5.132812 5.75 -4.703125 5.96875 -4.140625 L 5.0625 -4.140625 C 4.894531 -4.492188 4.660156 -4.765625 4.359375 -4.953125 C 4.054688 -5.140625 3.691406 -5.234375 3.265625 -5.234375 C 2.859375 -5.234375 2.492188 -5.140625 2.171875 -4.953125 C 1.847656 -4.765625 1.59375 -4.492188 1.40625 -4.140625 C 1.226562 -3.796875 1.140625 -3.390625 1.140625 -2.921875 C 1.140625 -2.453125 1.226562 -2.039062 1.40625 -1.6875 C 1.59375 -1.34375 1.847656 -1.078125 2.171875 -0.890625 C 2.492188 -0.703125 2.859375 -0.609375 3.265625 -0.609375 C 3.691406 -0.609375 4.054688 -0.703125 4.359375 -0.890625 C 4.660156 -1.078125 4.894531 -1.347656 5.0625 -1.703125 L 5.96875 -1.703125 C 5.75 -1.140625 5.398438 -0.707031 4.921875 -0.40625 C 4.453125 -0.101562 3.898438 0.046875 3.265625 0.046875 C 2.722656 0.046875 2.226562 -0.078125 1.78125 -0.328125 C 1.34375 -0.578125 0.992188 -0.925781 0.734375 -1.375 C 0.484375 -1.832031 0.359375 -2.347656 0.359375 -2.921875 Z M 0.359375 -2.921875 "/></g></g></g><g fill="#d8efd3" fill-opacity="1"><g transform="translate(64.912074, 200.150588)"><g><path d="M 3.28125 0.0625 C 2.738281 0.0625 2.242188 -0.0625 1.796875 -0.3125 C 1.359375 -0.570312 1.007812 -0.925781 0.75 -1.375 C 0.488281 -1.832031 0.359375 -2.347656 0.359375 -2.921875 C 0.359375 -3.484375 0.488281 -3.988281 0.75 -4.4375 C 1.007812 -4.894531 1.359375 -5.25 1.796875 -5.5 C 2.242188 -5.757812 2.738281 -5.890625 3.28125 -5.890625 C 3.832031 -5.890625 4.328125 -5.757812 4.765625 -5.5 C 5.210938 -5.25 5.566406 -4.898438 5.828125 -4.453125 C 6.085938 -4.003906 6.21875 -3.492188 6.21875 -2.921875 C 6.21875 -2.347656 6.085938 -1.832031 5.828125 -1.375 C 5.566406 -0.925781 5.210938 -0.570312 4.765625 -0.3125 C 4.328125 -0.0625 3.832031 0.0625 3.28125 0.0625 Z M 3.28125 -0.609375 C 3.6875 -0.609375 4.050781 -0.703125 4.375 -0.890625 C 4.707031 -1.078125 4.96875 -1.34375 5.15625 -1.6875 C 5.34375 -2.039062 5.4375 -2.453125 5.4375 -2.921875 C 5.4375 -3.390625 5.34375 -3.796875 5.15625 -4.140625 C 4.96875 -4.492188 4.710938 -4.765625 4.390625 -4.953125 C 4.066406 -5.140625 3.695312 -5.234375 3.28125 -5.234375 C 2.875 -5.234375 2.507812 -5.140625 2.1875 -4.953125 C 1.863281 -4.765625 1.609375 -4.492188 1.421875 -4.140625 C 1.234375 -3.796875 1.140625 -3.390625 1.140625 -2.921875 C 1.140625 -2.453125 1.234375 -2.039062 1.421875 -1.6875 C 1.609375 -1.34375 1.863281 -1.078125 2.1875 -0.890625 C 2.507812 -0.703125 2.875 -0.609375 3.28125 -0.609375 Z M 3.28125 -0.609375 "/></g></g></g><g fill="#d8efd3" fill-opacity="1"><g transform="translate(78.182277, 200.150588)"><g><path d="M 3.9375 -5.828125 L 3.9375 -5.203125 L 1.40625 -5.203125 L 1.40625 -3.25 L 3.453125 -3.25 L 3.453125 -2.625 L 1.40625 -2.625 L 1.40625 0 L 0.640625 0 L 0.640625 -5.828125 Z M 3.9375 -5.828125 "/></g></g></g><g fill="#d8efd3" fill-opacity="1"><g transform="translate(89.093428, 200.150588)"><g><path d="M 3.9375 -5.828125 L 3.9375 -5.203125 L 1.40625 -5.203125 L 1.40625 -3.25 L 3.453125 -3.25 L 3.453125 -2.625 L 1.40625 -2.625 L 1.40625 0 L 0.640625 0 L 0.640625 -5.828125 Z M 3.9375 -5.828125 "/></g></g></g><g fill="#d8efd3" fill-opacity="1"><g transform="translate(100.004581, 200.150588)"><g><path d="M 1.40625 -5.203125 L 1.40625 -3.265625 L 3.53125 -3.265625 L 3.53125 -2.640625 L 1.40625 -2.640625 L 1.40625 -0.625 L 3.78125 -0.625 L 3.78125 0 L 0.640625 0 L 0.640625 -5.828125 L 3.78125 -5.828125 L 3.78125 -5.203125 Z M 1.40625 -5.203125 "/></g></g></g><g fill="#d8efd3" fill-opacity="1"><g transform="translate(110.991021, 200.150588)"><g><path d="M 1.40625 -5.203125 L 1.40625 -3.265625 L 3.53125 -3.265625 L 3.53125 -2.640625 L 1.40625 -2.640625 L 1.40625 -0.625 L 3.78125 -0.625 L 3.78125 0 L 0.640625 0 L 0.640625 -5.828125 L 3.78125 -5.828125 L 3.78125 -5.203125 Z M 1.40625 -5.203125 "/></g></g></g><g fill="#d8efd3" fill-opacity="1"><g transform="translate(121.977462, 200.150588)"><g/></g></g><g fill="#d8efd3" fill-opacity="1"><g transform="translate(130.906007, 200.150588)"><g><path d="M 2.484375 0.0625 C 2.109375 0.0625 1.765625 -0.00390625 1.453125 -0.140625 C 1.148438 -0.273438 0.910156 -0.460938 0.734375 -0.703125 C 0.566406 -0.953125 0.476562 -1.238281 0.46875 -1.5625 L 1.28125 -1.5625 C 1.3125 -1.28125 1.425781 -1.046875 1.625 -0.859375 C 1.820312 -0.671875 2.109375 -0.578125 2.484375 -0.578125 C 2.847656 -0.578125 3.132812 -0.664062 3.34375 -0.84375 C 3.550781 -1.03125 3.65625 -1.269531 3.65625 -1.5625 C 3.65625 -1.78125 3.59375 -1.957031 3.46875 -2.09375 C 3.351562 -2.238281 3.203125 -2.347656 3.015625 -2.421875 C 2.828125 -2.492188 2.582031 -2.570312 2.28125 -2.65625 C 1.894531 -2.75 1.582031 -2.84375 1.34375 -2.9375 C 1.113281 -3.039062 0.914062 -3.203125 0.75 -3.421875 C 0.59375 -3.640625 0.515625 -3.925781 0.515625 -4.28125 C 0.515625 -4.601562 0.59375 -4.882812 0.75 -5.125 C 0.914062 -5.375 1.144531 -5.566406 1.4375 -5.703125 C 1.726562 -5.835938 2.0625 -5.90625 2.4375 -5.90625 C 2.988281 -5.90625 3.4375 -5.765625 3.78125 -5.484375 C 4.132812 -5.210938 4.332031 -4.851562 4.375 -4.40625 L 3.53125 -4.40625 C 3.507812 -4.625 3.394531 -4.816406 3.1875 -4.984375 C 2.976562 -5.160156 2.703125 -5.25 2.359375 -5.25 C 2.046875 -5.25 1.785156 -5.164062 1.578125 -5 C 1.378906 -4.832031 1.28125 -4.601562 1.28125 -4.3125 C 1.28125 -4.101562 1.335938 -3.929688 1.453125 -3.796875 C 1.578125 -3.660156 1.726562 -3.554688 1.90625 -3.484375 C 2.082031 -3.421875 2.332031 -3.34375 2.65625 -3.25 C 3.039062 -3.144531 3.347656 -3.039062 3.578125 -2.9375 C 3.804688 -2.832031 4.003906 -2.671875 4.171875 -2.453125 C 4.347656 -2.242188 4.4375 -1.957031 4.4375 -1.59375 C 4.4375 -1.300781 4.359375 -1.03125 4.203125 -0.78125 C 4.054688 -0.53125 3.832031 -0.328125 3.53125 -0.171875 C 3.238281 -0.015625 2.890625 0.0625 2.484375 0.0625 Z M 2.484375 0.0625 "/></g></g></g><g fill="#d8efd3" fill-opacity="1"><g transform="translate(142.511487, 200.150588)"><g><path d="M 5.125 -5.828125 L 5.125 0 L 4.375 0 L 4.375 -2.640625 L 1.40625 -2.640625 L 1.40625 0 L 0.640625 0 L 0.640625 -5.828125 L 1.40625 -5.828125 L 1.40625 -3.265625 L 4.375 -3.265625 L 4.375 -5.828125 Z M 5.125 -5.828125 "/></g></g></g><g fill="#d8efd3" fill-opacity="1"><g transform="translate(154.995342, 200.150588)"><g><path d="M 3.28125 0.0625 C 2.738281 0.0625 2.242188 -0.0625 1.796875 -0.3125 C 1.359375 -0.570312 1.007812 -0.925781 0.75 -1.375 C 0.488281 -1.832031 0.359375 -2.347656 0.359375 -2.921875 C 0.359375 -3.484375 0.488281 -3.988281 0.75 -4.4375 C 1.007812 -4.894531 1.359375 -5.25 1.796875 -5.5 C 2.242188 -5.757812 2.738281 -5.890625 3.28125 -5.890625 C 3.832031 -5.890625 4.328125 -5.757812 4.765625 -5.5 C 5.210938 -5.25 5.566406 -4.898438 5.828125 -4.453125 C 6.085938 -4.003906 6.21875 -3.492188 6.21875 -2.921875 C 6.21875 -2.347656 6.085938 -1.832031 5.828125 -1.375 C 5.566406 -0.925781 5.210938 -0.570312 4.765625 -0.3125 C 4.328125 -0.0625 3.832031 0.0625 3.28125 0.0625 Z M 3.28125 -0.609375 C 3.6875 -0.609375 4.050781 -0.703125 4.375 -0.890625 C 4.707031 -1.078125 4.96875 -1.34375 5.15625 -1.6875 C 5.34375 -2.039062 5.4375 -2.453125 5.4375 -2.921875 C 5.4375 -3.390625 5.34375 -3.796875 5.15625 -4.140625 C 4.96875 -4.492188 4.710938 -4.765625 4.390625 -4.953125 C 4.066406 -5.140625 3.695312 -5.234375 3.28125 -5.234375 C 2.875 -5.234375 2.507812 -5.140625 2.1875 -4.953125 C 1.863281 -4.765625 1.609375 -4.492188 1.421875 -4.140625 C 1.234375 -3.796875 1.140625 -3.390625 1.140625 -2.921875 C 1.140625 -2.453125 1.234375 -2.039062 1.421875 -1.6875 C 1.609375 -1.34375 1.863281 -1.078125 2.1875 -0.890625 C 2.507812 -0.703125 2.875 -0.609375 3.28125 -0.609375 Z M 3.28125 -0.609375 "/></g></g></g><g fill="#d8efd3" fill-opacity="1"><g transform="translate(168.265547, 200.150588)"><g><path d="M 4.546875 -4.125 C 4.546875 -3.632812 4.378906 -3.226562 4.046875 -2.90625 C 3.710938 -2.59375 3.207031 -2.4375 2.53125 -2.4375 L 1.40625 -2.4375 L 1.40625 0 L 0.640625 0 L 0.640625 -5.828125 L 2.53125 -5.828125 C 3.1875 -5.828125 3.6875 -5.664062 4.03125 -5.34375 C 4.375 -5.03125 4.546875 -4.625 4.546875 -4.125 Z M 2.53125 -3.0625 C 2.945312 -3.0625 3.253906 -3.148438 3.453125 -3.328125 C 3.660156 -3.515625 3.765625 -3.78125 3.765625 -4.125 C 3.765625 -4.84375 3.351562 -5.203125 2.53125 -5.203125 L 1.40625 -5.203125 L 1.40625 -3.0625 Z M 2.53125 -3.0625 "/></g></g></g></svg>